<?xml version="1.0" encoding="UTF-8"?>
<svg id="Layer_2" data-name="Layer 2" xmlns="http://www.w3.org/2000/svg" xmlns:xlink="http://www.w3.org/1999/xlink" viewBox="0 0 55.31 55.31">
  <defs>
    <style>
      .cls-1 {
        fill: none;
      }

      .cls-1, .cls-2, .cls-3, .cls-4, .cls-5, .cls-6, .cls-7, .cls-8, .cls-9, .cls-10, .cls-11, .cls-12, .cls-13, .cls-14, .cls-15, .cls-16, .cls-17, .cls-18, .cls-19, .cls-20, .cls-21, .cls-22, .cls-23, .cls-24, .cls-25, .cls-26, .cls-27, .cls-28, .cls-29, .cls-30, .cls-31, .cls-32, .cls-33, .cls-34, .cls-35, .cls-36 {
        stroke-width: 0px;
      }

      .cls-2 {
        fill: url(#linear-gradient);
      }

      .cls-3 {
        fill: url(#linear-gradient-29);
      }

      .cls-4 {
        fill: url(#linear-gradient-30);
      }

      .cls-5 {
        fill: url(#linear-gradient-31);
      }

      .cls-6 {
        fill: url(#linear-gradient-28);
      }

      .cls-7 {
        fill: url(#linear-gradient-25);
      }

      .cls-8 {
        fill: url(#linear-gradient-11);
      }

      .cls-9 {
        fill: url(#linear-gradient-12);
      }

      .cls-10 {
        fill: url(#linear-gradient-13);
      }

      .cls-11 {
        fill: url(#linear-gradient-10);
      }

      .cls-12 {
        fill: url(#linear-gradient-17);
      }

      .cls-13 {
        fill: url(#linear-gradient-16);
      }

      .cls-14 {
        fill: url(#linear-gradient-19);
      }

      .cls-15 {
        fill: url(#linear-gradient-15);
      }

      .cls-16 {
        fill: url(#linear-gradient-23);
      }

      .cls-17 {
        fill: url(#linear-gradient-21);
      }

      .cls-18 {
        fill: url(#linear-gradient-18);
      }

      .cls-19 {
        fill: url(#linear-gradient-14);
      }

      .cls-20 {
        fill: url(#linear-gradient-22);
      }

      .cls-21 {
        fill: url(#linear-gradient-20);
      }

      .cls-22 {
        fill: url(#linear-gradient-27);
      }

      .cls-23 {
        fill: url(#linear-gradient-24);
      }

      .cls-24 {
        fill: url(#linear-gradient-26);
      }

      .cls-25 {
        fill: url(#New_Gradient_Swatch);
      }

      .cls-26 {
        fill: url(#linear-gradient-4);
      }

      .cls-27 {
        fill: url(#linear-gradient-2);
      }

      .cls-28 {
        fill: url(#linear-gradient-3);
      }

      .cls-29 {
        fill: url(#linear-gradient-8);
      }

      .cls-30 {
        fill: url(#linear-gradient-9);
      }

      .cls-31 {
        fill: url(#linear-gradient-7);
      }

      .cls-32 {
        fill: url(#linear-gradient-5);
      }

      .cls-33 {
        fill: url(#linear-gradient-6);
      }

      .cls-35 {
        fill: #231f20;
      }

      .cls-36 {
        fill: #fff;
      }
    </style>
    <linearGradient id="linear-gradient" x1="233.17" y1="22.73" x2="234.03" y2="22.73" gradientTransform="translate(264.02) rotate(-180) scale(1 -1)" gradientUnits="userSpaceOnUse">
      <stop offset="0" stop-color="#fff"/>
      <stop offset="1" stop-color="#fff"/>
    </linearGradient>
    <linearGradient id="linear-gradient-2" x1="233.68" y1="23.09" x2="234.1" y2="23.09" xlink:href="#linear-gradient"/>
    <linearGradient id="linear-gradient-3" x1="233.74" y1="23.21" x2="234.18" y2="23.21" xlink:href="#linear-gradient"/>
    <linearGradient id="linear-gradient-4" x1="233.8" y1="23.32" x2="234.26" y2="23.32" xlink:href="#linear-gradient"/>
    <linearGradient id="linear-gradient-5" x1="233.85" y1="24.18" x2="235.09" y2="24.18" xlink:href="#linear-gradient"/>
    <linearGradient id="linear-gradient-6" x1="234.7" y1="24.96" x2="234.86" y2="24.96" xlink:href="#linear-gradient"/>
    <linearGradient id="linear-gradient-7" x1="234.69" y1="25.41" x2="234.88" y2="25.41" xlink:href="#linear-gradient"/>
    <linearGradient id="linear-gradient-8" x1="234.62" y1="25.16" x2="234.93" y2="25.16" xlink:href="#linear-gradient"/>
    <linearGradient id="linear-gradient-9" x1="234.63" y1="24.99" x2="234.94" y2="24.99" xlink:href="#linear-gradient"/>
    <linearGradient id="linear-gradient-10" x1="234.64" y1="25.42" x2="234.94" y2="25.42" xlink:href="#linear-gradient"/>
    <linearGradient id="linear-gradient-11" x1="234.93" y1="25.01" x2="235" y2="25.01" xlink:href="#linear-gradient"/>
    <linearGradient id="linear-gradient-12" x1="234.94" y1="25.49" x2="235.01" y2="25.49" xlink:href="#linear-gradient"/>
    <linearGradient id="linear-gradient-13" x1="235.06" y1="25.11" x2="235.24" y2="25.11" xlink:href="#linear-gradient"/>
    <linearGradient id="linear-gradient-14" x1="235.03" y1="25.76" x2="235.41" y2="25.76" xlink:href="#linear-gradient"/>
    <linearGradient id="linear-gradient-15" x1="235.01" y1="25.31" x2="235.27" y2="25.31" xlink:href="#linear-gradient"/>
    <linearGradient id="linear-gradient-16" x1="235.02" y1="25.51" x2="235.37" y2="25.51" xlink:href="#linear-gradient"/>
    <linearGradient id="linear-gradient-17" x1="235.32" y1="25.56" x2="235.43" y2="25.56" xlink:href="#linear-gradient"/>
    <linearGradient id="linear-gradient-18" x1="235.14" y1="26.03" x2="235.52" y2="26.03" xlink:href="#linear-gradient"/>
    <linearGradient id="linear-gradient-19" x1="235.47" y1="26.04" x2="235.73" y2="26.04" xlink:href="#linear-gradient"/>
    <linearGradient id="linear-gradient-20" x1="235.07" y1="26.04" x2="235.69" y2="26.04" xlink:href="#linear-gradient"/>
    <linearGradient id="linear-gradient-21" x1="235.46" y1="25.54" x2="235.69" y2="25.54" xlink:href="#linear-gradient"/>
    <linearGradient id="linear-gradient-22" x1="235.49" y1="25.72" x2="235.78" y2="25.72" xlink:href="#linear-gradient"/>
    <linearGradient id="linear-gradient-23" x1="234.48" y1="25.79" x2="235.75" y2="25.79" xlink:href="#linear-gradient"/>
    <linearGradient id="linear-gradient-24" x1="235.65" y1="25.96" x2="235.8" y2="25.96" xlink:href="#linear-gradient"/>
    <linearGradient id="linear-gradient-25" x1="235.51" y1="25.99" x2="235.81" y2="25.99" xlink:href="#linear-gradient"/>
    <linearGradient id="linear-gradient-26" x1="234.99" y1="25.32" x2="235.81" y2="25.32" xlink:href="#linear-gradient"/>
    <linearGradient id="linear-gradient-27" x1="235" y1="25.19" x2="235.82" y2="25.19" xlink:href="#linear-gradient"/>
    <linearGradient id="linear-gradient-28" x1="235.08" y1="25.1" x2="235.84" y2="25.1" xlink:href="#linear-gradient"/>
    <linearGradient id="linear-gradient-29" x1="236.88" y1="26.61" x2="236.88" y2="23.23" xlink:href="#linear-gradient"/>
    <linearGradient id="linear-gradient-30" x1="235.09" y1="25.53" x2="235.27" y2="25.53" xlink:href="#linear-gradient"/>
    <linearGradient id="New_Gradient_Swatch" data-name="New Gradient Swatch" x1="42.01" y1="-102.17" x2="42.01" y2="-104.86" gradientTransform="translate(-14.35 132.84)" gradientUnits="userSpaceOnUse">
      <stop offset="0" stop-color="#adcc6d"/>
      <stop offset=".48" stop-color="#fbae5b"/>
      <stop offset="1" stop-color="#ee2a29"/>
    </linearGradient>
    <linearGradient id="linear-gradient-31" x1="42.13" y1="-101.05" x2="42.13" y2="-102.02" gradientTransform="translate(-14.35 132.84)" gradientUnits="userSpaceOnUse">
      <stop offset="0" stop-color="#adcc6d"/>
      <stop offset=".48" stop-color="#fbae5b"/>
      <stop offset="1" stop-color="#ec2227"/>
    </linearGradient>
  </defs>
  <g id="Layer_1-2" data-name="Layer 1">
    <g>
      <rect class="cls-36" width="55.31" height="55.31"/>
      <g>
        <path class="cls-34" d="M18.15,1.52c.44,0,.79.35.79.79s-.35.79-.79.79-.79-.35-.79-.79.35-.79.79-.79Z"/>
        <path class="cls-34" d="M22.9,1.52c.44,0,.79.35.79.79s-.35.79-.79.79-.79-.35-.79-.79.35-.79.79-.79Z"/>
        <path class="cls-34" d="M24.49,1.52c.44,0,.79.35.79.79s-.35.79-.79.79-.79-.35-.79-.79.35-.79.79-.79Z"/>
        <path class="cls-34" d="M27.66,1.52c.44,0,.79.35.79.79s-.35.79-.79.79-.79-.35-.79-.79.35-.79.79-.79Z"/>
        <path class="cls-34" d="M29.24,1.52c.44,0,.79.35.79.79s-.35.79-.79.79-.79-.35-.79-.79.35-.79.79-.79Z"/>
        <path class="cls-34" d="M30.82,1.52c.44,0,.79.35.79.79s-.35.79-.79.79-.79-.35-.79-.79.35-.79.79-.79Z"/>
        <path class="cls-34" d="M33.99,1.52c.44,0,.79.35.79.79s-.35.79-.79.79-.79-.35-.79-.79.35-.79.79-.79Z"/>
        <path class="cls-34" d="M35.58,1.52c.44,0,.79.35.79.79s-.35.79-.79.79-.79-.35-.79-.79.35-.79.79-.79Z"/>
        <path class="cls-34" d="M38.74,1.52c.44,0,.79.35.79.79s-.35.79-.79.79-.79-.35-.79-.79.35-.79.79-.79Z"/>
        <path class="cls-34" d="M40.33,1.52c.44,0,.79.35.79.79s-.35.79-.79.79-.79-.35-.79-.79.35-.79.79-.79Z"/>
        <path class="cls-34" d="M19.74,3.1c.44,0,.79.35.79.79s-.35.79-.79.79-.79-.35-.79-.79.35-.79.79-.79Z"/>
        <path class="cls-34" d="M21.32,3.1c.44,0,.79.35.79.79s-.35.79-.79.79-.79-.35-.79-.79.35-.79.79-.79Z"/>
        <path class="cls-34" d="M22.9,3.1c.44,0,.79.35.79.79s-.35.79-.79.79-.79-.35-.79-.79.35-.79.79-.79Z"/>
        <path class="cls-34" d="M26.07,3.1c.44,0,.79.35.79.79s-.35.79-.79.79-.79-.35-.79-.79.35-.79.79-.79Z"/>
        <path class="cls-34" d="M29.24,3.1c.44,0,.79.35.79.79s-.35.79-.79.79-.79-.35-.79-.79.35-.79.79-.79Z"/>
        <path class="cls-34" d="M32.41,3.1c.44,0,.79.35.79.79s-.35.79-.79.79-.79-.35-.79-.79.35-.79.79-.79Z"/>
        <path class="cls-34" d="M33.99,3.1c.44,0,.79.35.79.79s-.35.79-.79.79-.79-.35-.79-.79.35-.79.79-.79Z"/>
        <path class="cls-34" d="M38.74,3.1c.44,0,.79.35.79.79s-.35.79-.79.79-.79-.35-.79-.79.35-.79.79-.79Z"/>
        <path class="cls-34" d="M16.57,4.69c.44,0,.79.35.79.79s-.35.79-.79.79-.79-.35-.79-.79.35-.79.79-.79Z"/>
        <path class="cls-34" d="M18.15,4.69c.44,0,.79.35.79.79s-.35.79-.79.79-.79-.35-.79-.79.35-.79.79-.79Z"/>
        <path class="cls-34" d="M19.74,4.69c.44,0,.79.35.79.79s-.35.79-.79.79-.79-.35-.79-.79.35-.79.79-.79Z"/>
        <path class="cls-34" d="M21.32,4.69c.44,0,.79.35.79.79s-.35.79-.79.79-.79-.35-.79-.79.35-.79.79-.79Z"/>
        <path class="cls-34" d="M29.24,4.69c.44,0,.79.35.79.79s-.35.79-.79.79-.79-.35-.79-.79.35-.79.79-.79Z"/>
        <path class="cls-34" d="M30.82,4.69c.44,0,.79.35.79.79s-.35.79-.79.79-.79-.35-.79-.79.35-.79.79-.79Z"/>
        <path class="cls-34" d="M32.41,4.69c.44,0,.79.35.79.79s-.35.79-.79.79-.79-.35-.79-.79.35-.79.79-.79Z"/>
        <path class="cls-34" d="M38.74,4.69c.44,0,.79.35.79.79s-.35.79-.79.79-.79-.35-.79-.79.35-.79.79-.79Z"/>
        <path class="cls-34" d="M16.57,6.27c.44,0,.79.35.79.79s-.35.79-.79.79-.79-.35-.79-.79.35-.79.79-.79Z"/>
        <path class="cls-34" d="M22.9,6.27c.44,0,.79.35.79.79s-.35.79-.79.79-.79-.35-.79-.79.35-.79.79-.79Z"/>
        <path class="cls-34" d="M26.07,6.27c.44,0,.79.35.79.79s-.35.79-.79.79-.79-.35-.79-.79.35-.79.79-.79Z"/>
        <path class="cls-34" d="M30.82,6.27c.44,0,.79.35.79.79s-.35.79-.79.79-.79-.35-.79-.79.35-.79.79-.79Z"/>
        <path class="cls-34" d="M32.41,6.27c.44,0,.79.35.79.79s-.35.79-.79.79-.79-.35-.79-.79.35-.79.79-.79Z"/>
        <path class="cls-34" d="M37.16,6.27c.44,0,.79.35.79.79s-.35.79-.79.79-.79-.35-.79-.79.35-.79.79-.79Z"/>
        <path class="cls-34" d="M38.74,6.27c.44,0,.79.35.79.79s-.35.79-.79.79-.79-.35-.79-.79.35-.79.79-.79Z"/>
        <path class="cls-34" d="M40.33,6.27c.44,0,.79.35.79.79s-.35.79-.79.79-.79-.35-.79-.79.35-.79.79-.79Z"/>
        <path class="cls-34" d="M14.98,7.86c.44,0,.79.35.79.79s-.35.79-.79.79-.79-.35-.79-.79.35-.79.79-.79Z"/>
        <path class="cls-34" d="M16.57,7.86c.44,0,.79.35.79.79s-.35.79-.79.79-.79-.35-.79-.79.35-.79.79-.79Z"/>
        <path class="cls-34" d="M22.9,7.86c.44,0,.79.35.79.79s-.35.79-.79.79-.79-.35-.79-.79.35-.79.79-.79Z"/>
        <path class="cls-34" d="M24.49,7.86c.44,0,.79.35.79.79s-.35.79-.79.79-.79-.35-.79-.79.35-.79.79-.79Z"/>
        <path class="cls-34" d="M26.07,7.86c.44,0,.79.35.79.79s-.35.79-.79.79-.79-.35-.79-.79.35-.79.79-.79Z"/>
        <path class="cls-34" d="M27.66,7.86c.44,0,.79.35.79.79s-.35.79-.79.79-.79-.35-.79-.79.35-.79.79-.79Z"/>
        <path class="cls-34" d="M30.82,7.86c.44,0,.79.35.79.79s-.35.79-.79.79-.79-.35-.79-.79.35-.79.79-.79Z"/>
        <path class="cls-34" d="M33.99,7.86c.44,0,.79.35.79.79s-.35.79-.79.79-.79-.35-.79-.79.35-.79.79-.79Z"/>
        <path class="cls-34" d="M37.16,7.86c.44,0,.79.35.79.79s-.35.79-.79.79-.79-.35-.79-.79.35-.79.79-.79Z"/>
        <path class="cls-34" d="M38.74,7.86c.44,0,.79.35.79.79s-.35.79-.79.79-.79-.35-.79-.79.35-.79.79-.79Z"/>
        <path class="cls-34" d="M40.33,7.86c.44,0,.79.35.79.79s-.35.79-.79.79-.79-.35-.79-.79.35-.79.79-.79Z"/>
        <path class="cls-34" d="M16.57,9.44c.44,0,.79.35.79.79s-.35.79-.79.79-.79-.35-.79-.79.35-.79.79-.79Z"/>
        <path class="cls-34" d="M21.32,9.44c.44,0,.79.35.79.79s-.35.79-.79.79-.79-.35-.79-.79.35-.79.79-.79Z"/>
        <path class="cls-34" d="M27.66,9.44c.44,0,.79.35.79.79s-.35.79-.79.79-.79-.35-.79-.79.35-.79.79-.79Z"/>
        <path class="cls-34" d="M29.24,9.44c.44,0,.79.35.79.79s-.35.79-.79.79-.79-.35-.79-.79.35-.79.79-.79Z"/>
        <path class="cls-34" d="M30.82,9.44c.44,0,.79.35.79.79s-.35.79-.79.79-.79-.35-.79-.79.35-.79.79-.79Z"/>
        <path class="cls-34" d="M32.41,9.44c.44,0,.79.35.79.79s-.35.79-.79.79-.79-.35-.79-.79.35-.79.79-.79Z"/>
        <path class="cls-34" d="M33.99,9.44c.44,0,.79.35.79.79s-.35.79-.79.79-.79-.35-.79-.79.35-.79.79-.79Z"/>
        <path class="cls-34" d="M37.16,9.44c.44,0,.79.35.79.79s-.35.79-.79.79-.79-.35-.79-.79.35-.79.79-.79Z"/>
        <path class="cls-34" d="M38.74,9.44c.44,0,.79.35.79.79s-.35.79-.79.79-.79-.35-.79-.79.35-.79.79-.79Z"/>
        <path class="cls-34" d="M14.98,11.02c.44,0,.79.35.79.79s-.35.79-.79.79-.79-.35-.79-.79.35-.79.79-.79Z"/>
        <path class="cls-34" d="M18.15,11.02c.44,0,.79.35.79.79s-.35.79-.79.79-.79-.35-.79-.79.35-.79.79-.79Z"/>
        <path class="cls-34" d="M21.32,11.02c.44,0,.79.35.79.79s-.35.79-.79.79-.79-.35-.79-.79.35-.79.79-.79Z"/>
        <path class="cls-34" d="M24.49,11.02c.44,0,.79.35.79.79s-.35.79-.79.79-.79-.35-.79-.79.35-.79.79-.79Z"/>
        <path class="cls-34" d="M27.66,11.02c.44,0,.79.35.79.79s-.35.79-.79.79-.79-.35-.79-.79.35-.79.79-.79Z"/>
        <path class="cls-34" d="M30.82,11.02c.44,0,.79.35.79.79s-.35.79-.79.79-.79-.35-.79-.79.35-.79.79-.79Z"/>
        <path class="cls-34" d="M33.99,11.02c.44,0,.79.35.79.79s-.35.79-.79.79-.79-.35-.79-.79.35-.79.79-.79Z"/>
        <path class="cls-34" d="M37.16,11.02c.44,0,.79.35.79.79s-.35.79-.79.79-.79-.35-.79-.79.35-.79.79-.79Z"/>
        <path class="cls-34" d="M40.33,11.02c.44,0,.79.35.79.79s-.35.79-.79.79-.79-.35-.79-.79.35-.79.79-.79Z"/>
        <path class="cls-34" d="M14.98,12.61c.44,0,.79.35.79.79s-.35.79-.79.79-.79-.35-.79-.79.35-.79.79-.79Z"/>
        <path class="cls-34" d="M16.57,12.61c.44,0,.79.35.79.79s-.35.79-.79.79-.79-.35-.79-.79.35-.79.79-.79Z"/>
        <path class="cls-34" d="M19.74,12.61c.44,0,.79.35.79.79s-.35.79-.79.79-.79-.35-.79-.79.35-.79.79-.79Z"/>
        <path class="cls-34" d="M21.32,12.61c.44,0,.79.35.79.79s-.35.79-.79.79-.79-.35-.79-.79.35-.79.79-.79Z"/>
        <path class="cls-34" d="M24.49,12.61c.44,0,.79.35.79.79s-.35.79-.79.79-.79-.35-.79-.79.35-.79.79-.79Z"/>
        <path class="cls-34" d="M26.07,12.61c.44,0,.79.35.79.79s-.35.79-.79.79-.79-.35-.79-.79.35-.79.79-.79Z"/>
        <path class="cls-34" d="M27.66,12.61c.44,0,.79.35.79.79s-.35.79-.79.79-.79-.35-.79-.79.35-.79.79-.79Z"/>
        <path class="cls-34" d="M32.41,12.61c.44,0,.79.35.79.79s-.35.79-.79.79-.79-.35-.79-.79.35-.79.79-.79Z"/>
        <path class="cls-34" d="M37.16,12.61c.44,0,.79.35.79.79s-.35.79-.79.79-.79-.35-.79-.79.35-.79.79-.79Z"/>
        <path class="cls-34" d="M40.33,12.61c.44,0,.79.35.79.79s-.35.79-.79.79-.79-.35-.79-.79.35-.79.79-.79Z"/>
        <path class="cls-34" d="M5.48,14.19c.44,0,.79.35.79.79s-.35.79-.79.79-.79-.35-.79-.79.35-.79.79-.79Z"/>
        <path class="cls-34" d="M7.06,14.19c.44,0,.79.35.79.79s-.35.79-.79.79-.79-.35-.79-.79.35-.79.79-.79Z"/>
        <path class="cls-34" d="M11.82,14.19c.44,0,.79.35.79.79s-.35.79-.79.79-.79-.35-.79-.79.35-.79.79-.79Z"/>
        <path class="cls-34" d="M13.4,14.19c.44,0,.79.35.79.79s-.35.79-.79.79-.79-.35-.79-.79.35-.79.79-.79Z"/>
        <path class="cls-34" d="M14.98,14.19c.44,0,.79.35.79.79s-.35.79-.79.79-.79-.35-.79-.79.35-.79.79-.79Z"/>
        <path class="cls-34" d="M19.74,14.19c.44,0,.79.35.79.79s-.35.79-.79.79-.79-.35-.79-.79.35-.79.79-.79Z"/>
        <path class="cls-34" d="M21.32,14.19c.44,0,.79.35.79.79s-.35.79-.79.79-.79-.35-.79-.79.35-.79.79-.79Z"/>
        <path class="cls-34" d="M29.24,14.19c.44,0,.79.35.79.79s-.35.79-.79.79-.79-.35-.79-.79.35-.79.79-.79Z"/>
        <path class="cls-34" d="M35.58,14.19c.44,0,.79.35.79.79s-.35.79-.79.79-.79-.35-.79-.79.35-.79.79-.79Z"/>
        <path class="cls-34" d="M38.74,14.19c.44,0,.79.35.79.79s-.35.79-.79.79-.79-.35-.79-.79.35-.79.79-.79Z"/>
        <path class="cls-34" d="M41.91,14.19c.44,0,.79.35.79.79s-.35.79-.79.79-.79-.35-.79-.79.35-.79.79-.79Z"/>
        <path class="cls-34" d="M43.5,14.19c.44,0,.79.35.79.79s-.35.79-.79.79-.79-.35-.79-.79.35-.79.79-.79Z"/>
        <path class="cls-34" d="M46.66,14.19c.44,0,.79.35.79.79s-.35.79-.79.79-.79-.35-.79-.79.35-.79.79-.79Z"/>
        <path class="cls-34" d="M3.9,15.78c.44,0,.79.35.79.79s-.35.79-.79.79-.79-.35-.79-.79.35-.79.79-.79Z"/>
        <path class="cls-34" d="M5.48,15.78c.44,0,.79.35.79.79s-.35.79-.79.79-.79-.35-.79-.79.35-.79.79-.79Z"/>
        <path class="cls-34" d="M7.06,15.78c.44,0,.79.35.79.79s-.35.79-.79.79-.79-.35-.79-.79.35-.79.79-.79Z"/>
        <path class="cls-34" d="M10.23,15.78c.44,0,.79.35.79.79s-.35.79-.79.79-.79-.35-.79-.79.35-.79.79-.79Z"/>
        <path class="cls-34" d="M16.57,15.78c.44,0,.79.35.79.79s-.35.79-.79.79-.79-.35-.79-.79.35-.79.79-.79Z"/>
        <path class="cls-34" d="M18.15,15.78c.44,0,.79.35.79.79s-.35.79-.79.79-.79-.35-.79-.79.35-.79.79-.79Z"/>
        <path class="cls-34" d="M19.74,15.78c.44,0,.79.35.79.79s-.35.79-.79.79-.79-.35-.79-.79.35-.79.79-.79Z"/>
        <path class="cls-34" d="M22.9,15.78c.44,0,.79.35.79.79s-.35.79-.79.79-.79-.35-.79-.79.35-.79.79-.79Z"/>
        <path class="cls-34" d="M24.49,15.78c.44,0,.79.35.79.79s-.35.79-.79.79-.79-.35-.79-.79.35-.79.79-.79Z"/>
        <path class="cls-34" d="M27.66,15.78c.44,0,.79.35.79.79s-.35.79-.79.79-.79-.35-.79-.79.35-.79.79-.79Z"/>
        <path class="cls-34" d="M30.82,15.78c.44,0,.79.35.79.79s-.35.79-.79.79-.79-.35-.79-.79.35-.79.79-.79Z"/>
        <path class="cls-34" d="M32.41,15.78c.44,0,.79.35.79.79s-.35.79-.79.79-.79-.35-.79-.79.35-.79.79-.79Z"/>
        <path class="cls-34" d="M33.99,15.78c.44,0,.79.35.79.79s-.35.79-.79.79-.79-.35-.79-.79.35-.79.79-.79Z"/>
        <path class="cls-34" d="M35.58,15.78c.44,0,.79.35.79.79s-.35.79-.79.79-.79-.35-.79-.79.35-.79.79-.79Z"/>
        <path class="cls-34" d="M37.16,15.78c.44,0,.79.35.79.79s-.35.79-.79.79-.79-.35-.79-.79.35-.79.79-.79Z"/>
        <path class="cls-34" d="M38.74,15.78c.44,0,.79.35.79.79s-.35.79-.79.79-.79-.35-.79-.79.35-.79.79-.79Z"/>
        <path class="cls-34" d="M41.91,15.78c.44,0,.79.35.79.79s-.35.79-.79.79-.79-.35-.79-.79.35-.79.79-.79Z"/>
        <path class="cls-34" d="M43.5,15.78c.44,0,.79.35.79.79s-.35.79-.79.79-.79-.35-.79-.79.35-.79.79-.79Z"/>
        <path class="cls-34" d="M53,15.78c.44,0,.79.35.79.79s-.35.79-.79.79-.79-.35-.79-.79.35-.79.79-.79Z"/>
        <path class="cls-34" d="M2.31,17.36c.44,0,.79.35.79.79s-.35.79-.79.79-.79-.35-.79-.79.35-.79.79-.79Z"/>
        <path class="cls-34" d="M7.06,17.36c.44,0,.79.35.79.79s-.35.79-.79.79-.79-.35-.79-.79.35-.79.79-.79Z"/>
        <path class="cls-34" d="M11.82,17.36c.44,0,.79.35.79.79s-.35.79-.79.79-.79-.35-.79-.79.35-.79.79-.79Z"/>
        <path class="cls-34" d="M16.57,17.36c.44,0,.79.35.79.79s-.35.79-.79.79-.79-.35-.79-.79.35-.79.79-.79Z"/>
        <path class="cls-34" d="M19.74,17.36c.44,0,.79.35.79.79s-.35.79-.79.79-.79-.35-.79-.79.35-.79.79-.79Z"/>
        <path class="cls-34" d="M27.66,17.36c.44,0,.79.35.79.79s-.35.79-.79.79-.79-.35-.79-.79.35-.79.79-.79Z"/>
        <path class="cls-34" d="M33.99,17.36c.44,0,.79.35.79.79s-.35.79-.79.79-.79-.35-.79-.79.35-.79.79-.79Z"/>
        <path class="cls-34" d="M38.74,17.36c.44,0,.79.35.79.79s-.35.79-.79.79-.79-.35-.79-.79.35-.79.79-.79Z"/>
        <path class="cls-34" d="M40.33,17.36c.44,0,.79.35.79.79s-.35.79-.79.79-.79-.35-.79-.79.35-.79.79-.79Z"/>
        <path class="cls-34" d="M51.42,17.36c.44,0,.79.35.79.79s-.35.79-.79.79-.79-.35-.79-.79.35-.79.79-.79Z"/>
        <path class="cls-34" d="M53,17.36c.44,0,.79.35.79.79s-.35.79-.79.79-.79-.35-.79-.79.35-.79.79-.79Z"/>
        <path class="cls-34" d="M5.48,18.94c.44,0,.79.35.79.79s-.35.79-.79.79-.79-.35-.79-.79.35-.79.79-.79Z"/>
        <path class="cls-34" d="M8.65,18.94c.44,0,.79.35.79.79s-.35.79-.79.79-.79-.35-.79-.79.35-.79.79-.79Z"/>
        <path class="cls-34" d="M10.23,18.94c.44,0,.79.35.79.79s-.35.79-.79.79-.79-.35-.79-.79.35-.79.79-.79Z"/>
        <path class="cls-34" d="M13.4,18.94c.44,0,.79.35.79.79s-.35.79-.79.79-.79-.35-.79-.79.35-.79.79-.79Z"/>
        <path class="cls-34" d="M16.57,18.94c.44,0,.79.35.79.79s-.35.79-.79.79-.79-.35-.79-.79.35-.79.79-.79Z"/>
        <path class="cls-34" d="M18.15,18.94c.44,0,.79.35.79.79s-.35.79-.79.79-.79-.35-.79-.79.35-.79.79-.79Z"/>
        <path class="cls-34" d="M40.33,18.94c.44,0,.79.35.79.79s-.35.79-.79.79-.79-.35-.79-.79.35-.79.79-.79Z"/>
        <path class="cls-34" d="M43.5,18.94c.44,0,.79.35.79.79s-.35.79-.79.79-.79-.35-.79-.79.35-.79.79-.79Z"/>
        <path class="cls-34" d="M45.08,18.94c.44,0,.79.35.79.79s-.35.79-.79.79-.79-.35-.79-.79.35-.79.79-.79Z"/>
        <path class="cls-34" d="M46.66,18.94c.44,0,.79.35.79.79s-.35.79-.79.79-.79-.35-.79-.79.35-.79.79-.79Z"/>
        <path class="cls-34" d="M48.25,18.94c.44,0,.79.35.79.79s-.35.79-.79.79-.79-.35-.79-.79.35-.79.79-.79Z"/>
        <path class="cls-34" d="M2.31,20.53c.44,0,.79.35.79.79s-.35.79-.79.79-.79-.35-.79-.79.35-.79.79-.79Z"/>
        <path class="cls-34" d="M3.9,20.53c.44,0,.79.35.79.79s-.35.79-.79.79-.79-.35-.79-.79.35-.79.79-.79Z"/>
        <path class="cls-34" d="M5.48,20.53c.44,0,.79.35.79.79s-.35.79-.79.79-.79-.35-.79-.79.35-.79.79-.79Z"/>
        <path class="cls-34" d="M7.06,20.53c.44,0,.79.35.79.79s-.35.79-.79.79-.79-.35-.79-.79.35-.79.79-.79Z"/>
        <path class="cls-34" d="M8.65,20.53c.44,0,.79.35.79.79s-.35.79-.79.79-.79-.35-.79-.79.35-.79.79-.79Z"/>
        <path class="cls-34" d="M11.82,20.53c.44,0,.79.35.79.79s-.35.79-.79.79-.79-.35-.79-.79.35-.79.79-.79Z"/>
        <path class="cls-34" d="M18.15,20.53c.44,0,.79.35.79.79s-.35.79-.79.79-.79-.35-.79-.79.35-.79.79-.79Z"/>
        <path class="cls-34" d="M40.33,20.53c.44,0,.79.35.79.79s-.35.79-.79.79-.79-.35-.79-.79.35-.79.79-.79Z"/>
        <path class="cls-34" d="M41.91,20.53c.44,0,.79.35.79.79s-.35.79-.79.79-.79-.35-.79-.79.35-.79.79-.79Z"/>
        <path class="cls-34" d="M45.08,20.53c.44,0,.79.35.79.79s-.35.79-.79.79-.79-.35-.79-.79.35-.79.79-.79Z"/>
        <path class="cls-34" d="M51.42,20.53c.44,0,.79.35.79.79s-.35.79-.79.79-.79-.35-.79-.79.35-.79.79-.79Z"/>
        <path class="cls-34" d="M53,20.53c.44,0,.79.35.79.79s-.35.79-.79.79-.79-.35-.79-.79.35-.79.79-.79Z"/>
        <path class="cls-34" d="M7.06,22.11c.44,0,.79.35.79.79s-.35.79-.79.79-.79-.35-.79-.79.35-.79.79-.79Z"/>
        <path class="cls-34" d="M13.4,22.11c.44,0,.79.35.79.79s-.35.79-.79.79-.79-.35-.79-.79.35-.79.79-.79Z"/>
        <path class="cls-34" d="M37.16,22.11c.44,0,.79.35.79.79s-.35.79-.79.79-.79-.35-.79-.79.35-.79.79-.79Z"/>
        <path class="cls-34" d="M40.33,22.11c.44,0,.79.35.79.79s-.35.79-.79.79-.79-.35-.79-.79.35-.79.79-.79Z"/>
        <path class="cls-34" d="M48.25,22.11c.44,0,.79.35.79.79s-.35.79-.79.79-.79-.35-.79-.79.35-.79.79-.79Z"/>
        <path class="cls-34" d="M3.9,23.7c.44,0,.79.35.79.79s-.35.79-.79.79-.79-.35-.79-.79.35-.79.79-.79Z"/>
        <path class="cls-34" d="M5.48,23.7c.44,0,.79.35.79.79s-.35.79-.79.79-.79-.35-.79-.79.35-.79.79-.79Z"/>
        <path class="cls-34" d="M11.82,23.7c.44,0,.79.35.79.79s-.35.79-.79.79-.79-.35-.79-.79.35-.79.79-.79Z"/>
        <path class="cls-34" d="M13.4,23.7c.44,0,.79.35.79.79s-.35.79-.79.79-.79-.35-.79-.79.35-.79.79-.79Z"/>
        <path class="cls-34" d="M16.57,23.7c.44,0,.79.35.79.79s-.35.79-.79.79-.79-.35-.79-.79.35-.79.79-.79Z"/>
        <path class="cls-34" d="M40.33,23.7c.44,0,.79.35.79.79s-.35.79-.79.79-.79-.35-.79-.79.35-.79.79-.79Z"/>
        <path class="cls-34" d="M41.91,23.7c.44,0,.79.35.79.79s-.35.79-.79.79-.79-.35-.79-.79.35-.79.79-.79Z"/>
        <path class="cls-34" d="M45.08,23.7c.44,0,.79.35.79.79s-.35.79-.79.79-.79-.35-.79-.79.35-.79.79-.79Z"/>
        <path class="cls-34" d="M46.66,23.7c.44,0,.79.35.79.79s-.35.79-.79.79-.79-.35-.79-.79.35-.79.79-.79Z"/>
        <path class="cls-34" d="M48.25,23.7c.44,0,.79.35.79.79s-.35.79-.79.79-.79-.35-.79-.79.35-.79.79-.79Z"/>
        <path class="cls-34" d="M49.83,23.7c.44,0,.79.35.79.79s-.35.79-.79.79-.79-.35-.79-.79.35-.79.79-.79Z"/>
        <path class="cls-34" d="M2.31,25.28c.44,0,.79.35.79.79s-.35.79-.79.79-.79-.35-.79-.79.35-.79.79-.79Z"/>
        <path class="cls-34" d="M8.65,25.28c.44,0,.79.35.79.79s-.35.79-.79.79-.79-.35-.79-.79.35-.79.79-.79Z"/>
        <path class="cls-34" d="M14.98,25.28c.44,0,.79.35.79.79s-.35.79-.79.79-.79-.35-.79-.79.35-.79.79-.79Z"/>
        <path class="cls-34" d="M16.57,25.28c.44,0,.79.35.79.79s-.35.79-.79.79-.79-.35-.79-.79.35-.79.79-.79Z"/>
        <path class="cls-34" d="M18.15,25.28c.44,0,.79.35.79.79s-.35.79-.79.79-.79-.35-.79-.79.35-.79.79-.79Z"/>
        <path class="cls-34" d="M37.16,25.28c.44,0,.79.35.79.79s-.35.79-.79.79-.79-.35-.79-.79.35-.79.79-.79Z"/>
        <path class="cls-34" d="M38.74,25.28c.44,0,.79.35.79.79s-.35.79-.79.79-.79-.35-.79-.79.35-.79.79-.79Z"/>
        <path class="cls-34" d="M41.91,25.28c.44,0,.79.35.79.79s-.35.79-.79.79-.79-.35-.79-.79.35-.79.79-.79Z"/>
        <path class="cls-34" d="M43.5,25.28c.44,0,.79.35.79.79s-.35.79-.79.79-.79-.35-.79-.79.35-.79.79-.79Z"/>
        <path class="cls-34" d="M46.66,25.28c.44,0,.79.35.79.79s-.35.79-.79.79-.79-.35-.79-.79.35-.79.79-.79Z"/>
        <path class="cls-34" d="M48.25,25.28c.44,0,.79.35.79.79s-.35.79-.79.79-.79-.35-.79-.79.35-.79.79-.79Z"/>
        <path class="cls-34" d="M49.83,25.28c.44,0,.79.35.79.79s-.35.79-.79.79-.79-.35-.79-.79.35-.79.79-.79Z"/>
        <path class="cls-34" d="M51.42,25.28c.44,0,.79.35.79.79s-.35.79-.79.79-.79-.35-.79-.79.35-.79.79-.79Z"/>
        <path class="cls-34" d="M2.31,26.86c.44,0,.79.35.79.79s-.35.79-.79.79-.79-.35-.79-.79.35-.79.79-.79Z"/>
        <path class="cls-34" d="M3.9,26.86c.44,0,.79.35.79.79s-.35.79-.79.79-.79-.35-.79-.79.35-.79.79-.79Z"/>
        <path class="cls-34" d="M7.06,26.86c.44,0,.79.35.79.79s-.35.79-.79.79-.79-.35-.79-.79.35-.79.79-.79Z"/>
        <path class="cls-34" d="M11.82,26.86c.44,0,.79.35.79.79s-.35.79-.79.79-.79-.35-.79-.79.35-.79.79-.79Z"/>
        <path class="cls-34" d="M13.4,26.86c.44,0,.79.35.79.79s-.35.79-.79.79-.79-.35-.79-.79.35-.79.79-.79Z"/>
        <path class="cls-34" d="M14.98,26.86c.44,0,.79.35.79.79s-.35.79-.79.79-.79-.35-.79-.79.35-.79.79-.79Z"/>
        <path class="cls-34" d="M18.15,26.86c.44,0,.79.35.79.79s-.35.79-.79.79-.79-.35-.79-.79.35-.79.79-.79Z"/>
        <path class="cls-34" d="M38.74,26.86c.44,0,.79.35.79.79s-.35.79-.79.79-.79-.35-.79-.79.35-.79.79-.79Z"/>
        <path class="cls-34" d="M40.33,26.86c.44,0,.79.35.79.79s-.35.79-.79.79-.79-.35-.79-.79.35-.79.79-.79Z"/>
        <path class="cls-34" d="M41.91,26.86c.44,0,.79.35.79.79s-.35.79-.79.79-.79-.35-.79-.79.35-.79.79-.79Z"/>
        <path class="cls-34" d="M43.5,26.86c.44,0,.79.35.79.79s-.35.79-.79.79-.79-.35-.79-.79.35-.79.79-.79Z"/>
        <path class="cls-34" d="M45.08,26.86c.44,0,.79.35.79.79s-.35.79-.79.79-.79-.35-.79-.79.35-.79.79-.79Z"/>
        <path class="cls-34" d="M46.66,26.86c.44,0,.79.35.79.79s-.35.79-.79.79-.79-.35-.79-.79.35-.79.79-.79Z"/>
        <path class="cls-34" d="M48.25,26.86c.44,0,.79.35.79.79s-.35.79-.79.79-.79-.35-.79-.79.35-.79.79-.79Z"/>
        <path class="cls-34" d="M49.83,26.86c.44,0,.79.35.79.79s-.35.79-.79.79-.79-.35-.79-.79.35-.79.79-.79Z"/>
        <path class="cls-34" d="M51.42,26.86c.44,0,.79.35.79.79s-.35.79-.79.79-.79-.35-.79-.79.35-.79.79-.79Z"/>
        <path class="cls-34" d="M3.9,28.45c.44,0,.79.35.79.79s-.35.79-.79.79-.79-.35-.79-.79.35-.79.79-.79Z"/>
        <path class="cls-34" d="M5.48,28.45c.44,0,.79.35.79.79s-.35.79-.79.79-.79-.35-.79-.79.35-.79.79-.79Z"/>
        <path class="cls-34" d="M13.4,28.45c.44,0,.79.35.79.79s-.35.79-.79.79-.79-.35-.79-.79.35-.79.79-.79Z"/>
        <path class="cls-34" d="M37.16,28.45c.44,0,.79.35.79.79s-.35.79-.79.79-.79-.35-.79-.79.35-.79.79-.79Z"/>
        <path class="cls-34" d="M38.74,28.45c.44,0,.79.35.79.79s-.35.79-.79.79-.79-.35-.79-.79.35-.79.79-.79Z"/>
        <path class="cls-34" d="M41.91,28.45c.44,0,.79.35.79.79s-.35.79-.79.79-.79-.35-.79-.79.35-.79.79-.79Z"/>
        <path class="cls-34" d="M43.5,28.45c.44,0,.79.35.79.79s-.35.79-.79.79-.79-.35-.79-.79.35-.79.79-.79Z"/>
        <path class="cls-34" d="M45.08,28.45c.44,0,.79.35.79.79s-.35.79-.79.79-.79-.35-.79-.79.35-.79.79-.79Z"/>
        <path class="cls-34" d="M46.66,28.45c.44,0,.79.35.79.79s-.35.79-.79.79-.79-.35-.79-.79.35-.79.79-.79Z"/>
        <path class="cls-34" d="M49.83,28.45c.44,0,.79.35.79.79s-.35.79-.79.79-.79-.35-.79-.79.35-.79.79-.79Z"/>
        <path class="cls-34" d="M51.42,28.45c.44,0,.79.35.79.79s-.35.79-.79.79-.79-.35-.79-.79.35-.79.79-.79Z"/>
        <path class="cls-34" d="M53,28.45c.44,0,.79.35.79.79s-.35.79-.79.79-.79-.35-.79-.79.35-.79.79-.79Z"/>
        <path class="cls-34" d="M11.82,30.03c.44,0,.79.35.79.79s-.35.79-.79.79-.79-.35-.79-.79.35-.79.79-.79Z"/>
        <path class="cls-34" d="M13.4,30.03c.44,0,.79.35.79.79s-.35.79-.79.79-.79-.35-.79-.79.35-.79.79-.79Z"/>
        <path class="cls-34" d="M16.57,30.03c.44,0,.79.35.79.79s-.35.79-.79.79-.79-.35-.79-.79.35-.79.79-.79Z"/>
        <path class="cls-34" d="M41.91,30.03c.44,0,.79.35.79.79s-.35.79-.79.79-.79-.35-.79-.79.35-.79.79-.79Z"/>
        <path class="cls-34" d="M43.5,30.03c.44,0,.79.35.79.79s-.35.79-.79.79-.79-.35-.79-.79.35-.79.79-.79Z"/>
        <path class="cls-34" d="M45.08,30.03c.44,0,.79.35.79.79s-.35.79-.79.79-.79-.35-.79-.79.35-.79.79-.79Z"/>
        <path class="cls-34" d="M46.66,30.03c.44,0,.79.35.79.79s-.35.79-.79.79-.79-.35-.79-.79.35-.79.79-.79Z"/>
        <path class="cls-34" d="M49.83,30.03c.44,0,.79.35.79.79s-.35.79-.79.79-.79-.35-.79-.79.35-.79.79-.79Z"/>
        <path class="cls-34" d="M51.42,30.03c.44,0,.79.35.79.79s-.35.79-.79.79-.79-.35-.79-.79.35-.79.79-.79Z"/>
        <path class="cls-34" d="M5.48,31.62c.44,0,.79.35.79.79s-.35.79-.79.79-.79-.35-.79-.79.35-.79.79-.79Z"/>
        <path class="cls-34" d="M13.4,31.62c.44,0,.79.35.79.79s-.35.79-.79.79-.79-.35-.79-.79.35-.79.79-.79Z"/>
        <path class="cls-34" d="M16.57,31.62c.44,0,.79.35.79.79s-.35.79-.79.79-.79-.35-.79-.79.35-.79.79-.79Z"/>
        <path class="cls-34" d="M2.31,33.2c.44,0,.79.35.79.79s-.35.79-.79.79-.79-.35-.79-.79.35-.79.79-.79Z"/>
        <path class="cls-34" d="M3.9,33.2c.44,0,.79.35.79.79s-.35.79-.79.79-.79-.35-.79-.79.35-.79.79-.79Z"/>
        <path class="cls-34" d="M7.06,33.2c.44,0,.79.35.79.79s-.35.79-.79.79-.79-.35-.79-.79.35-.79.79-.79Z"/>
        <path class="cls-34" d="M11.82,33.2c.44,0,.79.35.79.79s-.35.79-.79.79-.79-.35-.79-.79.35-.79.79-.79Z"/>
        <path class="cls-34" d="M14.98,33.2c.44,0,.79.35.79.79s-.35.79-.79.79-.79-.35-.79-.79.35-.79.79-.79Z"/>
        <path class="cls-34" d="M16.57,33.2c.44,0,.79.35.79.79s-.35.79-.79.79-.79-.35-.79-.79.35-.79.79-.79Z"/>
        <path class="cls-34" d="M40.33,33.2c.44,0,.79.35.79.79s-.35.79-.79.79-.79-.35-.79-.79.35-.79.79-.79Z"/>
        <path class="cls-34" d="M43.5,33.2c.44,0,.79.35.79.79s-.35.79-.79.79-.79-.35-.79-.79.35-.79.79-.79Z"/>
        <path class="cls-34" d="M48.25,33.2c.44,0,.79.35.79.79s-.35.79-.79.79-.79-.35-.79-.79.35-.79.79-.79Z"/>
        <path class="cls-34" d="M49.83,33.2c.44,0,.79.35.79.79s-.35.79-.79.79-.79-.35-.79-.79.35-.79.79-.79Z"/>
        <path class="cls-34" d="M53,33.2c.44,0,.79.35.79.79s-.35.79-.79.79-.79-.35-.79-.79.35-.79.79-.79Z"/>
        <path class="cls-34" d="M2.31,34.78c.44,0,.79.35.79.79s-.35.79-.79.79-.79-.35-.79-.79.35-.79.79-.79Z"/>
        <path class="cls-34" d="M3.9,34.78c.44,0,.79.35.79.79s-.35.79-.79.79-.79-.35-.79-.79.35-.79.79-.79Z"/>
        <path class="cls-34" d="M14.98,34.78c.44,0,.79.35.79.79s-.35.79-.79.79-.79-.35-.79-.79.35-.79.79-.79Z"/>
        <path class="cls-34" d="M16.57,34.78c.44,0,.79.35.79.79s-.35.79-.79.79-.79-.35-.79-.79.35-.79.79-.79Z"/>
        <path class="cls-34" d="M18.15,34.78c.44,0,.79.35.79.79s-.35.79-.79.79-.79-.35-.79-.79.35-.79.79-.79Z"/>
        <path class="cls-34" d="M37.16,34.78c.44,0,.79.35.79.79s-.35.79-.79.79-.79-.35-.79-.79.35-.79.79-.79Z"/>
        <path class="cls-34" d="M40.33,34.78c.44,0,.79.35.79.79s-.35.79-.79.79-.79-.35-.79-.79.35-.79.79-.79Z"/>
        <path class="cls-34" d="M49.83,34.78c.44,0,.79.35.79.79s-.35.79-.79.79-.79-.35-.79-.79.35-.79.79-.79Z"/>
        <path class="cls-34" d="M53,34.78c.44,0,.79.35.79.79s-.35.79-.79.79-.79-.35-.79-.79.35-.79.79-.79Z"/>
        <path class="cls-34" d="M8.65,36.37c.44,0,.79.35.79.79s-.35.79-.79.79-.79-.35-.79-.79.35-.79.79-.79Z"/>
        <path class="cls-34" d="M10.23,36.37c.44,0,.79.35.79.79s-.35.79-.79.79-.79-.35-.79-.79.35-.79.79-.79Z"/>
        <path class="cls-34" d="M11.82,36.37c.44,0,.79.35.79.79s-.35.79-.79.79-.79-.35-.79-.79.35-.79.79-.79Z"/>
        <path class="cls-34" d="M14.98,36.37c.44,0,.79.35.79.79s-.35.79-.79.79-.79-.35-.79-.79.35-.79.79-.79Z"/>
        <path class="cls-34" d="M16.57,36.37c.44,0,.79.35.79.79s-.35.79-.79.79-.79-.35-.79-.79.35-.79.79-.79Z"/>
        <path class="cls-34" d="M19.74,36.37c.44,0,.79.35.79.79s-.35.79-.79.79-.79-.35-.79-.79.35-.79.79-.79Z"/>
        <path class="cls-34" d="M29.24,36.37c.44,0,.79.35.79.79s-.35.79-.79.79-.79-.35-.79-.79.35-.79.79-.79Z"/>
        <path class="cls-34" d="M32.41,36.37c.44,0,.79.35.79.79s-.35.79-.79.79-.79-.35-.79-.79.35-.79.79-.79Z"/>
        <path class="cls-34" d="M37.16,36.37c.44,0,.79.35.79.79s-.35.79-.79.79-.79-.35-.79-.79.35-.79.79-.79Z"/>
        <path class="cls-34" d="M38.74,36.37c.44,0,.79.35.79.79s-.35.79-.79.79-.79-.35-.79-.79.35-.79.79-.79Z"/>
        <path class="cls-34" d="M40.33,36.37c.44,0,.79.35.79.79s-.35.79-.79.79-.79-.35-.79-.79.35-.79.79-.79Z"/>
        <path class="cls-34" d="M43.5,36.37c.44,0,.79.35.79.79s-.35.79-.79.79-.79-.35-.79-.79.35-.79.79-.79Z"/>
        <path class="cls-34" d="M45.08,36.37c.44,0,.79.35.79.79s-.35.79-.79.79-.79-.35-.79-.79.35-.79.79-.79Z"/>
        <path class="cls-34" d="M51.42,36.37c.44,0,.79.35.79.79s-.35.79-.79.79-.79-.35-.79-.79.35-.79.79-.79Z"/>
        <path class="cls-34" d="M53,36.37c.44,0,.79.35.79.79s-.35.79-.79.79-.79-.35-.79-.79.35-.79.79-.79Z"/>
        <path class="cls-34" d="M3.9,37.95c.44,0,.79.35.79.79s-.35.79-.79.79-.79-.35-.79-.79.35-.79.79-.79Z"/>
        <path class="cls-34" d="M5.48,37.95c.44,0,.79.35.79.79s-.35.79-.79.79-.79-.35-.79-.79.35-.79.79-.79Z"/>
        <path class="cls-34" d="M7.06,37.95c.44,0,.79.35.79.79s-.35.79-.79.79-.79-.35-.79-.79.35-.79.79-.79Z"/>
        <path class="cls-34" d="M10.23,37.95c.44,0,.79.35.79.79s-.35.79-.79.79-.79-.35-.79-.79.35-.79.79-.79Z"/>
        <path class="cls-34" d="M13.4,37.95c.44,0,.79.35.79.79s-.35.79-.79.79-.79-.35-.79-.79.35-.79.79-.79Z"/>
        <path class="cls-34" d="M16.57,37.95c.44,0,.79.35.79.79s-.35.79-.79.79-.79-.35-.79-.79.35-.79.79-.79Z"/>
        <path class="cls-34" d="M18.15,37.95c.44,0,.79.35.79.79s-.35.79-.79.79-.79-.35-.79-.79.35-.79.79-.79Z"/>
        <path class="cls-34" d="M21.32,37.95c.44,0,.79.35.79.79s-.35.79-.79.79-.79-.35-.79-.79.35-.79.79-.79Z"/>
        <path class="cls-34" d="M22.9,37.95c.44,0,.79.35.79.79s-.35.79-.79.79-.79-.35-.79-.79.35-.79.79-.79Z"/>
        <path class="cls-34" d="M26.07,37.95c.44,0,.79.35.79.79s-.35.79-.79.79-.79-.35-.79-.79.35-.79.79-.79Z"/>
        <path class="cls-34" d="M27.66,37.95c.44,0,.79.35.79.79s-.35.79-.79.79-.79-.35-.79-.79.35-.79.79-.79Z"/>
        <path class="cls-34" d="M29.24,37.95c.44,0,.79.35.79.79s-.35.79-.79.79-.79-.35-.79-.79.35-.79.79-.79Z"/>
        <path class="cls-34" d="M33.99,37.95c.44,0,.79.35.79.79s-.35.79-.79.79-.79-.35-.79-.79.35-.79.79-.79Z"/>
        <path class="cls-34" d="M41.91,37.95c.44,0,.79.35.79.79s-.35.79-.79.79-.79-.35-.79-.79.35-.79.79-.79Z"/>
        <path class="cls-34" d="M45.08,37.95c.44,0,.79.35.79.79s-.35.79-.79.79-.79-.35-.79-.79.35-.79.79-.79Z"/>
        <path class="cls-34" d="M46.66,37.95c.44,0,.79.35.79.79s-.35.79-.79.79-.79-.35-.79-.79.35-.79.79-.79Z"/>
        <path class="cls-34" d="M48.25,37.95c.44,0,.79.35.79.79s-.35.79-.79.79-.79-.35-.79-.79.35-.79.79-.79Z"/>
        <path class="cls-34" d="M51.42,37.95c.44,0,.79.35.79.79s-.35.79-.79.79-.79-.35-.79-.79.35-.79.79-.79Z"/>
        <path class="cls-34" d="M53,37.95c.44,0,.79.35.79.79s-.35.79-.79.79-.79-.35-.79-.79.35-.79.79-.79Z"/>
        <path class="cls-34" d="M2.31,39.54c.44,0,.79.35.79.79s-.35.79-.79.79-.79-.35-.79-.79.35-.79.79-.79Z"/>
        <path class="cls-34" d="M7.06,39.54c.44,0,.79.35.79.79s-.35.79-.79.79-.79-.35-.79-.79.35-.79.79-.79Z"/>
        <path class="cls-34" d="M10.23,39.54c.44,0,.79.35.79.79s-.35.79-.79.79-.79-.35-.79-.79.35-.79.79-.79Z"/>
        <path class="cls-34" d="M11.82,39.54c.44,0,.79.35.79.79s-.35.79-.79.79-.79-.35-.79-.79.35-.79.79-.79Z"/>
        <path class="cls-34" d="M14.98,39.54c.44,0,.79.35.79.79s-.35.79-.79.79-.79-.35-.79-.79.35-.79.79-.79Z"/>
        <path class="cls-34" d="M18.15,39.54c.44,0,.79.35.79.79s-.35.79-.79.79-.79-.35-.79-.79.35-.79.79-.79Z"/>
        <path class="cls-34" d="M19.74,39.54c.44,0,.79.35.79.79s-.35.79-.79.79-.79-.35-.79-.79.35-.79.79-.79Z"/>
        <path class="cls-34" d="M22.9,39.54c.44,0,.79.35.79.79s-.35.79-.79.79-.79-.35-.79-.79.35-.79.79-.79Z"/>
        <path class="cls-34" d="M26.07,39.54c.44,0,.79.35.79.79s-.35.79-.79.79-.79-.35-.79-.79.35-.79.79-.79Z"/>
        <path class="cls-34" d="M27.66,39.54c.44,0,.79.35.79.79s-.35.79-.79.79-.79-.35-.79-.79.35-.79.79-.79Z"/>
        <path class="cls-34" d="M32.41,39.54c.44,0,.79.35.79.79s-.35.79-.79.79-.79-.35-.79-.79.35-.79.79-.79Z"/>
        <path class="cls-34" d="M33.99,39.54c.44,0,.79.35.79.79s-.35.79-.79.79-.79-.35-.79-.79.35-.79.79-.79Z"/>
        <path class="cls-34" d="M40.33,39.54c.44,0,.79.35.79.79s-.35.79-.79.79-.79-.35-.79-.79.35-.79.79-.79Z"/>
        <path class="cls-34" d="M41.91,39.54c.44,0,.79.35.79.79s-.35.79-.79.79-.79-.35-.79-.79.35-.79.79-.79Z"/>
        <path class="cls-34" d="M43.5,39.54c.44,0,.79.35.79.79s-.35.79-.79.79-.79-.35-.79-.79.35-.79.79-.79Z"/>
        <path class="cls-34" d="M45.08,39.54c.44,0,.79.35.79.79s-.35.79-.79.79-.79-.35-.79-.79.35-.79.79-.79Z"/>
        <path class="cls-34" d="M46.66,39.54c.44,0,.79.35.79.79s-.35.79-.79.79-.79-.35-.79-.79.35-.79.79-.79Z"/>
        <path class="cls-34" d="M48.25,39.54c.44,0,.79.35.79.79s-.35.79-.79.79-.79-.35-.79-.79.35-.79.79-.79Z"/>
        <path class="cls-34" d="M14.98,41.12c.44,0,.79.35.79.79s-.35.79-.79.79-.79-.35-.79-.79.35-.79.79-.79Z"/>
        <path class="cls-34" d="M21.32,41.12c.44,0,.79.35.79.79s-.35.79-.79.79-.79-.35-.79-.79.35-.79.79-.79Z"/>
        <path class="cls-34" d="M27.66,41.12c.44,0,.79.35.79.79s-.35.79-.79.79-.79-.35-.79-.79.35-.79.79-.79Z"/>
        <path class="cls-34" d="M29.24,41.12c.44,0,.79.35.79.79s-.35.79-.79.79-.79-.35-.79-.79.35-.79.79-.79Z"/>
        <path class="cls-34" d="M30.82,41.12c.44,0,.79.35.79.79s-.35.79-.79.79-.79-.35-.79-.79.35-.79.79-.79Z"/>
        <path class="cls-34" d="M32.41,41.12c.44,0,.79.35.79.79s-.35.79-.79.79-.79-.35-.79-.79.35-.79.79-.79Z"/>
        <path class="cls-34" d="M33.99,41.12c.44,0,.79.35.79.79s-.35.79-.79.79-.79-.35-.79-.79.35-.79.79-.79Z"/>
        <path class="cls-34" d="M35.58,41.12c.44,0,.79.35.79.79s-.35.79-.79.79-.79-.35-.79-.79.35-.79.79-.79Z"/>
        <path class="cls-34" d="M40.33,41.12c.44,0,.79.35.79.79s-.35.79-.79.79-.79-.35-.79-.79.35-.79.79-.79Z"/>
        <path class="cls-34" d="M46.66,41.12c.44,0,.79.35.79.79s-.35.79-.79.79-.79-.35-.79-.79.35-.79.79-.79Z"/>
        <path class="cls-34" d="M49.83,41.12c.44,0,.79.35.79.79s-.35.79-.79.79-.79-.35-.79-.79.35-.79.79-.79Z"/>
        <path class="cls-34" d="M14.98,42.7c.44,0,.79.35.79.79s-.35.79-.79.79-.79-.35-.79-.79.35-.79.79-.79Z"/>
        <path class="cls-34" d="M22.9,42.7c.44,0,.79.35.79.79s-.35.79-.79.79-.79-.35-.79-.79.35-.79.79-.79Z"/>
        <path class="cls-34" d="M26.07,42.7c.44,0,.79.35.79.79s-.35.79-.79.79-.79-.35-.79-.79.35-.79.79-.79Z"/>
        <path class="cls-34" d="M29.24,42.7c.44,0,.79.35.79.79s-.35.79-.79.79-.79-.35-.79-.79.35-.79.79-.79Z"/>
        <path class="cls-34" d="M30.82,42.7c.44,0,.79.35.79.79s-.35.79-.79.79-.79-.35-.79-.79.35-.79.79-.79Z"/>
        <path class="cls-34" d="M33.99,42.7c.44,0,.79.35.79.79s-.35.79-.79.79-.79-.35-.79-.79.35-.79.79-.79Z"/>
        <path class="cls-34" d="M35.58,42.7c.44,0,.79.35.79.79s-.35.79-.79.79-.79-.35-.79-.79.35-.79.79-.79Z"/>
        <path class="cls-34" d="M38.74,42.7c.44,0,.79.35.79.79s-.35.79-.79.79-.79-.35-.79-.79.35-.79.79-.79Z"/>
        <path class="cls-34" d="M40.33,42.7c.44,0,.79.35.79.79s-.35.79-.79.79-.79-.35-.79-.79.35-.79.79-.79Z"/>
        <path class="cls-34" d="M43.5,42.7c.44,0,.79.35.79.79s-.35.79-.79.79-.79-.35-.79-.79.35-.79.79-.79Z"/>
        <path class="cls-34" d="M46.66,42.7c.44,0,.79.35.79.79s-.35.79-.79.79-.79-.35-.79-.79.35-.79.79-.79Z"/>
        <path class="cls-34" d="M48.25,42.7c.44,0,.79.35.79.79s-.35.79-.79.79-.79-.35-.79-.79.35-.79.79-.79Z"/>
        <path class="cls-34" d="M49.83,42.7c.44,0,.79.35.79.79s-.35.79-.79.79-.79-.35-.79-.79.35-.79.79-.79Z"/>
        <path class="cls-34" d="M16.57,44.29c.44,0,.79.35.79.79s-.35.79-.79.79-.79-.35-.79-.79.35-.79.79-.79Z"/>
        <path class="cls-34" d="M19.74,44.29c.44,0,.79.35.79.79s-.35.79-.79.79-.79-.35-.79-.79.35-.79.79-.79Z"/>
        <path class="cls-34" d="M22.9,44.29c.44,0,.79.35.79.79s-.35.79-.79.79-.79-.35-.79-.79.35-.79.79-.79Z"/>
        <path class="cls-34" d="M24.49,44.29c.44,0,.79.35.79.79s-.35.79-.79.79-.79-.35-.79-.79.35-.79.79-.79Z"/>
        <path class="cls-34" d="M26.07,44.29c.44,0,.79.35.79.79s-.35.79-.79.79-.79-.35-.79-.79.35-.79.79-.79Z"/>
        <path class="cls-34" d="M32.41,44.29c.44,0,.79.35.79.79s-.35.79-.79.79-.79-.35-.79-.79.35-.79.79-.79Z"/>
        <path class="cls-34" d="M38.74,44.29c.44,0,.79.35.79.79s-.35.79-.79.79-.79-.35-.79-.79.35-.79.79-.79Z"/>
        <path class="cls-34" d="M40.33,44.29c.44,0,.79.35.79.79s-.35.79-.79.79-.79-.35-.79-.79.35-.79.79-.79Z"/>
        <path class="cls-34" d="M46.66,44.29c.44,0,.79.35.79.79s-.35.79-.79.79-.79-.35-.79-.79.35-.79.79-.79Z"/>
        <path class="cls-34" d="M48.25,44.29c.44,0,.79.35.79.79s-.35.79-.79.79-.79-.35-.79-.79.35-.79.79-.79Z"/>
        <path class="cls-34" d="M49.83,44.29c.44,0,.79.35.79.79s-.35.79-.79.79-.79-.35-.79-.79.35-.79.79-.79Z"/>
        <path class="cls-34" d="M51.42,44.29c.44,0,.79.35.79.79s-.35.79-.79.79-.79-.35-.79-.79.35-.79.79-.79Z"/>
        <path class="cls-34" d="M53,44.29c.44,0,.79.35.79.79s-.35.79-.79.79-.79-.35-.79-.79.35-.79.79-.79Z"/>
        <path class="cls-34" d="M19.74,45.87c.44,0,.79.35.79.79s-.35.79-.79.79-.79-.35-.79-.79.35-.79.79-.79Z"/>
        <path class="cls-34" d="M22.9,45.87c.44,0,.79.35.79.79s-.35.79-.79.79-.79-.35-.79-.79.35-.79.79-.79Z"/>
        <path class="cls-34" d="M24.49,45.87c.44,0,.79.35.79.79s-.35.79-.79.79-.79-.35-.79-.79.35-.79.79-.79Z"/>
        <path class="cls-34" d="M26.07,45.87c.44,0,.79.35.79.79s-.35.79-.79.79-.79-.35-.79-.79.35-.79.79-.79Z"/>
        <path class="cls-34" d="M30.82,45.87c.44,0,.79.35.79.79s-.35.79-.79.79-.79-.35-.79-.79.35-.79.79-.79Z"/>
        <path class="cls-34" d="M37.16,45.87c.44,0,.79.35.79.79s-.35.79-.79.79-.79-.35-.79-.79.35-.79.79-.79Z"/>
        <path class="cls-34" d="M38.74,45.87c.44,0,.79.35.79.79s-.35.79-.79.79-.79-.35-.79-.79.35-.79.79-.79Z"/>
        <path class="cls-34" d="M40.33,45.87c.44,0,.79.35.79.79s-.35.79-.79.79-.79-.35-.79-.79.35-.79.79-.79Z"/>
        <path class="cls-34" d="M41.91,45.87c.44,0,.79.35.79.79s-.35.79-.79.79-.79-.35-.79-.79.35-.79.79-.79Z"/>
        <path class="cls-34" d="M43.5,45.87c.44,0,.79.35.79.79s-.35.79-.79.79-.79-.35-.79-.79.35-.79.79-.79Z"/>
        <path class="cls-34" d="M45.08,45.87c.44,0,.79.35.79.79s-.35.79-.79.79-.79-.35-.79-.79.35-.79.79-.79Z"/>
        <path class="cls-34" d="M46.66,45.87c.44,0,.79.35.79.79s-.35.79-.79.79-.79-.35-.79-.79.35-.79.79-.79Z"/>
        <path class="cls-34" d="M49.83,45.87c.44,0,.79.35.79.79s-.35.79-.79.79-.79-.35-.79-.79.35-.79.79-.79Z"/>
        <path class="cls-34" d="M51.42,45.87c.44,0,.79.35.79.79s-.35.79-.79.79-.79-.35-.79-.79.35-.79.79-.79Z"/>
        <path class="cls-34" d="M14.98,47.46c.44,0,.79.35.79.79s-.35.79-.79.79-.79-.35-.79-.79.35-.79.79-.79Z"/>
        <path class="cls-34" d="M16.57,47.46c.44,0,.79.35.79.79s-.35.79-.79.79-.79-.35-.79-.79.35-.79.79-.79Z"/>
        <path class="cls-34" d="M24.49,47.46c.44,0,.79.35.79.79s-.35.79-.79.79-.79-.35-.79-.79.35-.79.79-.79Z"/>
        <path class="cls-34" d="M29.24,47.46c.44,0,.79.35.79.79s-.35.79-.79.79-.79-.35-.79-.79.35-.79.79-.79Z"/>
        <path class="cls-34" d="M33.99,47.46c.44,0,.79.35.79.79s-.35.79-.79.79-.79-.35-.79-.79.35-.79.79-.79Z"/>
        <path class="cls-34" d="M35.58,47.46c.44,0,.79.35.79.79s-.35.79-.79.79-.79-.35-.79-.79.35-.79.79-.79Z"/>
        <path class="cls-34" d="M37.16,47.46c.44,0,.79.35.79.79s-.35.79-.79.79-.79-.35-.79-.79.35-.79.79-.79Z"/>
        <path class="cls-34" d="M45.08,47.46c.44,0,.79.35.79.79s-.35.79-.79.79-.79-.35-.79-.79.35-.79.79-.79Z"/>
        <path class="cls-34" d="M48.25,47.46c.44,0,.79.35.79.79s-.35.79-.79.79-.79-.35-.79-.79.35-.79.79-.79Z"/>
        <path class="cls-34" d="M49.83,47.46c.44,0,.79.35.79.79s-.35.79-.79.79-.79-.35-.79-.79.35-.79.79-.79Z"/>
        <path class="cls-34" d="M14.98,49.04c.44,0,.79.35.79.79s-.35.79-.79.79-.79-.35-.79-.79.35-.79.79-.79Z"/>
        <path class="cls-34" d="M16.57,49.04c.44,0,.79.35.79.79s-.35.79-.79.79-.79-.35-.79-.79.35-.79.79-.79Z"/>
        <path class="cls-34" d="M18.15,49.04c.44,0,.79.35.79.79s-.35.79-.79.79-.79-.35-.79-.79.35-.79.79-.79Z"/>
        <path class="cls-34" d="M19.74,49.04c.44,0,.79.35.79.79s-.35.79-.79.79-.79-.35-.79-.79.35-.79.79-.79Z"/>
        <path class="cls-34" d="M22.9,49.04c.44,0,.79.35.79.79s-.35.79-.79.79-.79-.35-.79-.79.35-.79.79-.79Z"/>
        <path class="cls-34" d="M27.66,49.04c.44,0,.79.35.79.79s-.35.79-.79.79-.79-.35-.79-.79.35-.79.79-.79Z"/>
        <path class="cls-34" d="M30.82,49.04c.44,0,.79.35.79.79s-.35.79-.79.79-.79-.35-.79-.79.35-.79.79-.79Z"/>
        <path class="cls-34" d="M38.74,49.04c.44,0,.79.35.79.79s-.35.79-.79.79-.79-.35-.79-.79.35-.79.79-.79Z"/>
        <path class="cls-34" d="M41.91,49.04c.44,0,.79.35.79.79s-.35.79-.79.79-.79-.35-.79-.79.35-.79.79-.79Z"/>
        <path class="cls-34" d="M43.5,49.04c.44,0,.79.35.79.79s-.35.79-.79.79-.79-.35-.79-.79.35-.79.79-.79Z"/>
        <path class="cls-34" d="M48.25,49.04c.44,0,.79.35.79.79s-.35.79-.79.79-.79-.35-.79-.79.35-.79.79-.79Z"/>
        <path class="cls-34" d="M21.32,50.62c.44,0,.79.35.79.79s-.35.79-.79.79-.79-.35-.79-.79.35-.79.79-.79Z"/>
        <path class="cls-34" d="M24.49,50.62c.44,0,.79.35.79.79s-.35.79-.79.79-.79-.35-.79-.79.35-.79.79-.79Z"/>
        <path class="cls-34" d="M26.07,50.62c.44,0,.79.35.79.79s-.35.79-.79.79-.79-.35-.79-.79.35-.79.79-.79Z"/>
        <path class="cls-34" d="M29.24,50.62c.44,0,.79.35.79.79s-.35.79-.79.79-.79-.35-.79-.79.35-.79.79-.79Z"/>
        <path class="cls-34" d="M30.82,50.62c.44,0,.79.35.79.79s-.35.79-.79.79-.79-.35-.79-.79.35-.79.79-.79Z"/>
        <path class="cls-34" d="M32.41,50.62c.44,0,.79.35.79.79s-.35.79-.79.79-.79-.35-.79-.79.35-.79.79-.79Z"/>
        <path class="cls-34" d="M33.99,50.62c.44,0,.79.35.79.79s-.35.79-.79.79-.79-.35-.79-.79.35-.79.79-.79Z"/>
        <path class="cls-34" d="M35.58,50.62c.44,0,.79.35.79.79s-.35.79-.79.79-.79-.35-.79-.79.35-.79.79-.79Z"/>
        <path class="cls-34" d="M40.33,50.62c.44,0,.79.35.79.79s-.35.79-.79.79-.79-.35-.79-.79.35-.79.79-.79Z"/>
        <path class="cls-34" d="M43.5,50.62c.44,0,.79.35.79.79s-.35.79-.79.79-.79-.35-.79-.79.35-.79.79-.79Z"/>
        <path class="cls-34" d="M53,50.62c.44,0,.79.35.79.79s-.35.79-.79.79-.79-.35-.79-.79.35-.79.79-.79Z"/>
        <path class="cls-34" d="M18.15,52.21c.44,0,.79.35.79.79s-.35.79-.79.79-.79-.35-.79-.79.35-.79.79-.79Z"/>
        <path class="cls-34" d="M19.74,52.21c.44,0,.79.35.79.79s-.35.79-.79.79-.79-.35-.79-.79.35-.79.79-.79Z"/>
        <path class="cls-34" d="M22.9,52.21c.44,0,.79.35.79.79s-.35.79-.79.79-.79-.35-.79-.79.35-.79.79-.79Z"/>
        <path class="cls-34" d="M26.07,52.21c.44,0,.79.35.79.79s-.35.79-.79.79-.79-.35-.79-.79.35-.79.79-.79Z"/>
        <path class="cls-34" d="M33.99,52.21c.44,0,.79.35.79.79s-.35.79-.79.79-.79-.35-.79-.79.35-.79.79-.79Z"/>
        <path class="cls-34" d="M38.74,52.21c.44,0,.79.35.79.79s-.35.79-.79.79-.79-.35-.79-.79.35-.79.79-.79Z"/>
        <path class="cls-34" d="M45.08,52.21c.44,0,.79.35.79.79s-.35.79-.79.79-.79-.35-.79-.79.35-.79.79-.79Z"/>
        <path class="cls-34" d="M46.66,52.21c.44,0,.79.35.79.79s-.35.79-.79.79-.79-.35-.79-.79.35-.79.79-.79Z"/>
        <path class="cls-34" d="M49.83,52.21c.44,0,.79.35.79.79s-.35.79-.79.79-.79-.35-.79-.79.35-.79.79-.79Z"/>
        <path class="cls-34" d="M10.95,1.52H1.52v11.09h11.09V1.52h-1.66ZM10.95,10.95H3.18V3.18h7.76v7.76Z"/>
        <path class="cls-34" d="M52.13,1.52h-9.42v11.09h11.09V1.52h-1.66ZM52.13,10.95h-7.76V3.18h7.76v7.76Z"/>
        <path class="cls-34" d="M10.95,42.7H1.52v11.09h11.09v-11.09h-1.66ZM10.95,52.13H3.18v-7.76h7.76v7.76Z"/>
        <path class="cls-34" d="M9.44,4.69h-4.75v4.75h4.75v-4.75Z"/>
        <path class="cls-34" d="M50.62,4.69h-4.75v4.75h4.75v-4.75Z"/>
        <path class="cls-34" d="M9.44,45.87h-4.75v4.75h4.75v-4.75Z"/>
        <rect class="cls-1" x="18.94" y="18.94" width="17.42" height="17.42"/>
      </g>
      <circle class="cls-35" cx="27.66" cy="27.66" r="7.31"/>
      <g>
        <g>
          <path class="cls-36" d="M22.94,27.59c.5.04,1.01-.02,1.5-.15.39-.1.77-.25,1.15-.39,1.26-.48,2.47-.51,3.75-.12.58.17,1.13.4,1.72.54.39.09.8.15,1.2.12-.4-.03-.79-.11-1.17-.24-.76-.25-1.49-.62-2.28-.8-1.15-.27-2.22-.16-3.31.3-.46.19-.92.4-1.4.53-.38.11-.78.17-1.18.2h0Z"/>
          <g>
            <path class="cls-2" d="M29.99,22.87s.11.09.17.14c.07.05.15.09.21.13.02-.03.04-.07.06-.1.11.1.22.19.33.26-.1-.1-.13-.37-.09-.54,0-.04.02-.07.05-.09.04-.04.08-.09.13-.13,0,0-.05-.38-.37-.37,0,0-.24.34-.49.71Z"/>
            <path class="cls-27" d="M29.91,22.98s.11.09.17.13c.08.05.16.1.23.14,0-.02.02-.04.03-.05-.07-.04-.14-.08-.22-.13-.06-.05-.12-.09-.17-.14-.01.02-.02.03-.04.05Z"/>
            <path class="cls-28" d="M29.84,23.09s.1.09.16.13c.09.06.18.11.25.15,0-.02.02-.04.03-.06-.07-.04-.15-.09-.24-.15-.06-.04-.12-.09-.17-.13-.01.02-.02.03-.03.05Z"/>
            <path class="cls-26" d="M29.76,23.21h0s.1.08.16.12c.1.07.2.13.27.16,0-.02.02-.04.03-.06-.07-.04-.17-.09-.26-.16-.06-.04-.11-.09-.16-.13-.01.02-.02.04-.03.05Z"/>
            <path class="cls-32" d="M28.93,24.63l.63.46c.23-.5.39-1.05.6-1.54-.07-.04-.18-.1-.29-.17-.06-.04-.11-.08-.16-.12-.1.15-.19.29-.25.4-.11.2-.3.59-.55.97Z"/>
            <path class="cls-33" d="M29.17,25.04s.1-.03.14-.04l-.16-.12c.02.06.02.12.02.15Z"/>
            <path class="cls-31" d="M29.14,25.3s.03.14,0,.26c.06-.09.12-.19.18-.3-.04.02-.11.04-.19.04Z"/>
            <path class="cls-29" d="M29.4,25.09c-.06,0-.21,0-.31.13.08,0,.24,0,.31-.13Z"/>
            <path class="cls-30" d="M29.38,25.05h0-.02s-.12-.02-.2.03l-.04.03v-.04s.02-.13-.03-.23h-.02s.07.16.03.31c.1-.08.22-.09.28-.09Z"/>
            <path class="cls-11" d="M29.1,25.29v-.03s.02,0,.02,0c.14.01.23-.06.24-.07,0,0,0-.01,0-.02,0,0,0,0,0,0-.09.07-.21.08-.28.08,0,0,0,0-.01,0h0c.06.17.03.32,0,.4,0,0,0,0,0,0h0c.07-.2.01-.36.01-.36Z"/>
            <path class="cls-8" d="M29.04,24.84c-.05.13-.01.28,0,.35.06-.16.02-.29,0-.35Z"/>
            <path class="cls-9" d="M29.05,25.29c-.03.07-.07.23-.02.4.03-.07.08-.22.02-.4Z"/>
            <path class="cls-10" d="M28.94,25.01c-.05.07-.1.15-.16.21.08-.04.14-.04.18-.05-.02-.06-.02-.12-.02-.17Z"/>
            <path class="cls-19" d="M28.99,25.75c-.13-.07-.3-.02-.38,0,.06.04.24.11.38,0Z"/>
            <path class="cls-15" d="M28.74,25.37c.13,0,.23-.07.27-.11-.13,0-.22.07-.27.11Z"/>
            <path class="cls-13" d="M28.65,25.7s.05-.01.08-.02c.1-.02.19,0,.26.02-.05-.16-.02-.31,0-.39-.06.04-.14.09-.26.09,0,0-.01,0-.01,0,0,.06.02.19-.08.3ZM28.72,25.67h-.04s.01-.03.01-.03c0,0,.05-.12.04-.2v-.02s.02,0,.02,0c0,0,.1,0,.18-.05l.04-.02v.04s-.05.14-.02.26v.03s-.02,0-.02,0c0,0-.1-.03-.22,0Z"/>
            <path class="cls-12" d="M28.69,25.42c-.09.1-.1.23-.1.29.11-.1.11-.23.1-.29Z"/>
            <path class="cls-18" d="M28.63,25.86c0,.06-.03.2-.13.34.06-.04.11-.08.17-.12.07-.06.15-.12.21-.19-.06,0-.17,0-.25-.04Z"/>
            <path class="cls-14" d="M28.55,25.79c-.07.07-.21.23-.26.49.08-.07.24-.25.26-.49Z"/>
            <path class="cls-21" d="M28.39,26.26c.19-.19.2-.43.2-.44v-.04s.03.02.03.02c.1.08.26.05.29.04.01-.01.02-.02.03-.04-.05.02-.09.03-.14.03-.07,0-.14-.02-.22-.07,0,.24-.17.43-.26.52.02-.01.04-.02.07-.04Z"/>
            <path class="cls-17" d="M28.5,25.64c0-.07.03-.14.06-.2-.08.06-.15.12-.24.16.08,0,.14.02.17.03Z"/>
            <path class="cls-20" d="M28.52,25.74c-.1-.05-.21-.05-.28-.04.11.08.23.06.28.04Z"/>
            <path class="cls-16" d="M28.68,26.11c-.14.11-.28.19-.42.26v.11c.16-.06.32-.16.49-.28.35-.27.59-.63.78-1.03l-.08-.06c-.22.46-.46.78-.77,1.01Z"/>
            <path class="cls-23" d="M28.22,25.81l.03.31c.04-.13.09-.21.12-.25-.07,0-.12-.03-.15-.05Z"/>
            <path class="cls-7" d="M28.26,26.24v.02c.05-.24.19-.41.25-.48-.03,0-.06,0-.09,0-.08,0-.15-.03-.21-.07v.04s.1.07.2.07h.06s-.04.03-.04.03c0,0-.13.11-.17.39Z"/>
            <path class="cls-24" d="M28.2,25.66s.21-.02.35.05c0-.07.02-.23.14-.34,0,0,.13-.15.34-.15-.02-.05-.05-.17-.04-.29,0,0,0,0,0,0,0,.01-.01.14.02.25v.03s-.02,0-.02,0h0s-.14,0-.29.1c-.01.01-.02.02-.04.04h0s-.14.18-.12.31v.03s-.03-.02-.03-.02c-.01,0-.14-.07-.29-.03,0,0-.01,0-.02,0h0Z"/>
            <path class="cls-22" d="M29.02,24.78l-.04-.03c-.05.1-.32.57-.78.8v.08c.57-.26.81-.8.83-.84Z"/>
            <path class="cls-6" d="M28.93,24.77s0-.02.01-.02h0s-.01-.02,0-.03c0,0,0,0,0,0l-.03-.02c-.2.3-.44.57-.71.73v.07s.01,0,.01,0h0s.02,0,.02,0h0s0-.02,0-.02c0,0,0,0,.01-.01.01,0,.02,0,.03,0h0s.02,0,.02,0h0s0-.03,0-.04c0,0,.02,0,.03,0h0s0,0,0,0c0,0,.01,0,.02-.01h0s0-.03,0-.04c0,0,.01,0,.02,0,0,0,.01,0,.01,0h0s.01,0,.02,0h0s0,0,0,0c0,0,0-.01,0-.02,0,0,0-.01,0-.01,0,0,.02,0,.03,0h0s0,0,.01,0h0s0-.01,0-.01c0,0,0-.02,0-.03,0,0,.02,0,.03,0h0s.01,0,.02-.01h0s0-.03,0-.04c0,0,.02,0,.03,0h0s0,0,0,0c0,0,.01,0,.02-.01h0s0-.01,0-.02c0,0,0-.01,0-.02,0,0,.02,0,.03,0h0s.01,0,.02-.01h0s0-.01,0-.02c0,0,0-.01,0-.02,0,0,.02,0,.03,0h0s.01,0,.02-.02h0s0-.03,0-.03c0,0,.02,0,.03,0h0s0,0,.01-.01h0s0,0,0,0c0,0-.01-.02,0-.03,0,0,0,0,.01,0,0,0,.01,0,.02,0h0s0,0,.01-.01h0s0,0,0,0c0,0,0,0,0-.01,0,0,0-.01,0-.02,0,0,0,0,.01,0,0,0,.01,0,.02,0h0s.01-.01.02-.02h0s0-.01,0-.02c0,0,0-.01,0-.02,0,0,.02-.01.03,0h0s.01-.01.01-.02h0s0-.01,0-.02c0,0,0-.01,0-.02,0,0,.02-.01.03,0h0s0-.01.01-.02h0s0-.01,0-.02c0,0,0-.01,0-.02,0,0,0,0,.01,0,0,0,.01,0,.02,0h0s0-.01.01-.02h0s-.01-.02,0-.03c0-.01.02-.01.03,0h0Z"/>
            <path class="cls-3" d="M25.94,25.78s.05-.37.43.09c.32.38.97.96,1.84.63l-.09-1.06c-.07.04-.15.06-.23.08-.64.13-1.31-.4-1.22-.82.03-.14.08-.27.15-.39.04-.06.08-.12.13-.17.04-.04.09-.09.14-.09.06,0,.11.07.15.11.03.04.07.09.1.14,0,0,.27-.72,1.01-.92,0,0-.53-.34-1.18-.04-.65.31-1.22,1.09-1.22,2.42Z"/>
            <path class="cls-4" d="M28.75,25.63s.04-.11.04-.17c.03,0,.09-.01.14-.04,0,.05-.02.13,0,.21-.02,0-.05,0-.08,0-.03,0-.06,0-.09,0Z"/>
          </g>
        </g>
        <g>
          <g>
            <path class="cls-35" d="M25.31,30.56c-.08-.04-.15-.09-.21-.16-.06-.07-.11-.16-.15-.26-.04-.1-.07-.21-.09-.33l-.28-1.61h-.02l-.78,1.45-.58-1.15c-.04-.07-.09-.15-.16-.22-.06-.07-.13-.14-.22-.19-.08-.05-.18-.09-.28-.1-.1-.01-.22,0-.34.04v.03c.07,0,.13,0,.2.03.06.03.12.06.17.11.05.05.1.1.14.15.04.06.08.11.12.17.02.03.03.06.05.08l-.18,1.38s-.03.08-.07.11c-.04.03-.08.05-.13.05h-.04v.03h.56v-.02h-.04s-.05-.01-.07-.04c-.02-.02-.03-.05-.03-.08h0s.13-1.18.13-1.18l.69,1.38h.03s.01-.09.03-.13c.02-.05.04-.1.07-.16l.53-1.01.15.92c.03.16.08.3.14.41.07.12.15.21.24.28.1.07.2.12.32.14.12.02.24.02.37-.02v-.03c-.1,0-.19-.01-.27-.05Z"/>
            <path class="cls-35" d="M27.21,30.12s-.09-.01-.13-.04c-.04-.02-.08-.06-.1-.12l-.79-1.78h-.02s0,.04-.02.08c-.01.03-.02.07-.04.11-.02.04-.03.07-.04.1-.01.03-.02.05-.02.05l-.63,1.45c-.03.05-.06.09-.1.11-.04.03-.09.04-.13.04h-.02v.03h.57v-.03h-.02s-.04,0-.07-.02c-.02-.01-.04-.03-.05-.06,0-.03,0-.06,0-.09h0l.16-.38h.67l.15.39c.02.05.01.09-.01.12-.03.03-.06.05-.09.05h-.02v.03h.79v-.03h-.02ZM25.79,29.47l.3-.74.29.74h-.59Z"/>
            <path class="cls-35" d="M28.84,28.24h-.36v.03h.04s.07.01.1.04c.03.03.04.06.04.1v1.08c0,.12-.02.23-.07.32-.05.09-.11.16-.2.21-.08.05-.18.08-.3.08-.11,0-.21-.03-.29-.08-.08-.05-.15-.13-.19-.22-.04-.1-.07-.21-.07-.34v-1.04s.01-.07.04-.1c.03-.03.06-.04.1-.04h.04v-.03h-.71v.03h.04s.07.01.1.04c.03.03.04.06.04.1v1.07c0,.15.03.27.1.38.07.11.16.19.29.25.13.06.28.09.46.09.16,0,.3-.03.41-.09.12-.06.2-.14.27-.25.06-.11.09-.24.09-.38v-1.06s.01-.07.04-.1c.03-.03.06-.04.1-.04h.04v-.03h-.19Z"/>
            <g>
              <path class="cls-35" d="M29.79,30.07s-.05-.07-.05-.12v-1.52s.02-.09.05-.12c.03-.03.07-.05.12-.05h.04v-.03h-.75v.03h.04s.09.02.12.05c.03.03.05.07.05.12v1.52s-.02.09-.05.12c-.03.03-.07.05-.12.05h-.04v.03h.75v-.03h-.04s-.09-.02-.12-.05Z"/>
              <path class="cls-35" d="M30.94,30.08s-.08-.06-.12-.11l-.7-.91.58-.69s.07-.06.11-.08c.05-.02.11-.04.17-.04h.01v-.02h-.61v.02h.03s.06.01.08.04c.01.03.01.06-.01.09h0s-.65.84-.65.84c.05.07.09.12.13.18.04.05.08.11.13.17.04.06.09.12.13.17.04.05.08.1.11.14.03.04.05.06.05.07.04.05.09.09.14.12.05.03.11.05.16.06.05.01.1.02.14.02.04,0,.07,0,.09,0h.19v-.03c-.06,0-.11-.02-.15-.04Z"/>
            </g>
            <path class="cls-35" d="M33.07,30.12s-.09-.01-.13-.04c-.04-.02-.08-.06-.1-.12l-.79-1.78h-.02s0,.04-.02.08c-.01.03-.02.07-.04.11-.02.04-.03.07-.04.1-.01.03-.02.05-.02.05l-.63,1.45c-.03.05-.06.09-.1.11-.04.03-.09.04-.13.04h-.02v.03h.57v-.03h-.02s-.04,0-.07-.02c-.02-.01-.04-.03-.05-.06,0-.03,0-.06,0-.09h0l.16-.38h.67l.15.39c.02.05.01.09-.01.12-.03.03-.06.05-.09.05h-.02v.03h.79v-.03h-.02ZM31.66,29.47l.3-.74.29.74h-.59Z"/>
          </g>
          <g>
            <path class="cls-25" d="M25.31,30.56c-.08-.04-.15-.09-.21-.16-.06-.07-.11-.16-.15-.26-.04-.1-.07-.21-.09-.33l-.28-1.61h-.02l-.78,1.45-.58-1.15c-.04-.07-.09-.15-.16-.22-.06-.07-.13-.14-.22-.19-.08-.05-.18-.09-.28-.1-.1-.01-.22,0-.34.04v.03c.07,0,.13,0,.2.03.06.03.12.06.17.11.05.05.1.1.14.15.04.06.08.11.12.17.02.03.03.06.05.08l-.18,1.38s-.03.08-.07.11c-.04.03-.08.05-.13.05h-.04v.03h.56v-.02h-.04s-.05-.01-.07-.04c-.02-.02-.03-.05-.03-.08h0s.13-1.18.13-1.18l.69,1.38h.03s.01-.09.03-.13c.02-.05.04-.1.07-.16l.53-1.01.15.92c.03.16.08.3.14.41.07.12.15.21.24.28.1.07.2.12.32.14.12.02.24.02.37-.02v-.03c-.1,0-.19-.01-.27-.05Z"/>
            <path class="cls-25" d="M27.21,30.12s-.09-.01-.13-.04c-.04-.02-.08-.06-.1-.12l-.79-1.78h-.02s0,.04-.02.08c-.01.03-.02.07-.04.11-.02.04-.03.07-.04.1-.01.03-.02.05-.02.05l-.63,1.45c-.03.05-.06.09-.1.11-.04.03-.09.04-.13.04h-.02v.03h.57v-.03h-.02s-.04,0-.07-.02c-.02-.01-.04-.03-.05-.06,0-.03,0-.06,0-.09h0l.16-.38h.67l.15.39c.02.05.01.09-.01.12-.03.03-.06.05-.09.05h-.02v.03h.79v-.03h-.02ZM25.79,29.47l.3-.74.29.74h-.59Z"/>
            <path class="cls-25" d="M28.84,28.24h-.36v.03h.04s.07.01.1.04c.03.03.04.06.04.1v1.08c0,.12-.02.23-.07.32-.05.09-.11.16-.2.21-.08.05-.18.08-.3.08-.11,0-.21-.03-.29-.08-.08-.05-.15-.13-.19-.22-.04-.1-.07-.21-.07-.34v-1.04s.01-.07.04-.1c.03-.03.06-.04.1-.04h.04v-.03h-.71v.03h.04s.07.01.1.04c.03.03.04.06.04.1v1.07c0,.15.03.27.1.38.07.11.16.19.29.25.13.06.28.09.46.09.16,0,.3-.03.41-.09.12-.06.2-.14.27-.25.06-.11.09-.24.09-.38v-1.06s.01-.07.04-.1c.03-.03.06-.04.1-.04h.04v-.03h-.19Z"/>
            <g>
              <path class="cls-25" d="M29.79,30.07s-.05-.07-.05-.12v-1.52s.02-.09.05-.12c.03-.03.07-.05.12-.05h.04v-.03h-.75v.03h.04s.09.02.12.05c.03.03.05.07.05.12v1.52s-.02.09-.05.12c-.03.03-.07.05-.12.05h-.04v.03h.75v-.03h-.04s-.09-.02-.12-.05Z"/>
              <path class="cls-25" d="M30.94,30.08s-.08-.06-.12-.11l-.7-.91.58-.69s.07-.06.11-.08c.05-.02.11-.04.17-.04h.01v-.02h-.61v.02h.03s.06.01.08.04c.01.03.01.06-.01.09h0s-.65.84-.65.84c.05.07.09.12.13.18.04.05.08.11.13.17.04.06.09.12.13.17.04.05.08.1.11.14.03.04.05.06.05.07.04.05.09.09.14.12.05.03.11.05.16.06.05.01.1.02.14.02.04,0,.07,0,.09,0h.19v-.03c-.06,0-.11-.02-.15-.04Z"/>
            </g>
            <path class="cls-25" d="M33.07,30.12s-.09-.01-.13-.04c-.04-.02-.08-.06-.1-.12l-.79-1.78h-.02s0,.04-.02.08c-.01.03-.02.07-.04.11-.02.04-.03.07-.04.1-.01.03-.02.05-.02.05l-.63,1.45c-.03.05-.06.09-.1.11-.04.03-.09.04-.13.04h-.02v.03h.57v-.03h-.02s-.04,0-.07-.02c-.02-.01-.04-.03-.05-.06,0-.03,0-.06,0-.09h0l.16-.38h.67l.15.39c.02.05.01.09-.01.12-.03.03-.06.05-.09.05h-.02v.03h.79v-.03h-.02ZM31.66,29.47l.3-.74.29.74h-.59Z"/>
          </g>
        </g>
        <g>
          <g>
            <path class="cls-35" d="M23.55,30.74h0s.01.01.01.01c.02,0,.03,0,.04.02.01.01.01.03,0,.06h0l-.16.57-.26-.69h0s-.01,0-.01,0l-.25.7-.19-.58h0s0-.05,0-.06c.01-.01.03-.02.04-.02h.01s-.33-.01-.33-.01h0s.01.01.01.01c.02,0,.04,0,.07.02.02.01.04.03.05.06l.31.86h.01s0-.05,0-.07c0-.02.01-.05.02-.08l.2-.57.28.72h.01s0-.04,0-.07c0-.02.01-.05.02-.08l.22-.71s.03-.04.05-.06c.02-.01.05-.02.07-.02h.01s-.27-.01-.27-.01Z"/>
            <path class="cls-35" d="M24.51,31.66s-.04,0-.06-.02c-.02-.01-.04-.03-.05-.06h0l-.34-.73h-.01s0,.02,0,.04c0,.02-.01.03-.02.05,0,.02-.01.03-.02.04,0,.01,0,.02,0,.02l-.28.59s-.03.04-.05.05c-.02.01-.04.02-.06.02h-.01s.26.01.26.01h0s-.01-.01-.01-.01c-.02,0-.03,0-.04-.02-.01-.01-.01-.03,0-.05l.07-.17h.32l.07.17s0,.04,0,.05c-.01.01-.03.02-.04.02h-.01s.31.01.31.01h0s-.01-.01-.01-.01ZM23.9,31.38l.14-.33.14.33h-.28Z"/>
            <path class="cls-35" d="M25.35,31.65s-.03-.02-.05-.03c-.01-.01-.03-.03-.05-.05-.02-.02-.03-.04-.05-.06-.02-.02-.03-.04-.04-.06-.01-.02-.02-.02-.02-.03-.01-.02-.03-.04-.05-.06-.02-.02-.04-.04-.06-.04.04,0,.08-.02.11-.04.03-.02.05-.05.07-.08.02-.03.02-.06.02-.1,0-.04,0-.07-.02-.1-.01-.03-.03-.05-.06-.07-.02-.02-.05-.03-.09-.04-.03,0-.07-.01-.11-.01h-.36s0,.01,0,.01h0s.04,0,.05.02c.01.01.02.02.02.04v.65s0,.03-.02.04c-.01.01-.03.02-.05.02h-.02s.09.01.09.01h.21,0s0-.01-.02-.01c-.02,0-.04,0-.05-.02-.01-.01-.02-.03-.02-.05v-.67s.02,0,.04,0c.03,0,.05,0,.09,0,.02,0,.04,0,.06.01.02,0,.04.02.05.03.02.01.03.03.04.05,0,.02.01.04.02.07,0,.01,0,.03,0,.04,0,.01,0,.02,0,.03-.01.04-.03.06-.05.08-.02.02-.04.03-.06.03-.02,0-.05,0-.07,0-.02,0-.04,0-.06,0h0s.04.02.06.04c.02.02.04.04.05.06,0,0,0,.02.02.03.01.02.02.04.04.06.01.02.03.04.04.06.01.02.02.03.03.04.02.02.03.04.06.06.02.02.05.03.08.04.03.01.07.02.12.02h.06s-.04-.02-.06-.02Z"/>
            <path class="cls-35" d="M26.2,31.65s-.03-.02-.05-.03c-.01-.01-.03-.03-.05-.05-.02-.02-.03-.04-.05-.06-.02-.02-.03-.04-.04-.06-.01-.02-.02-.02-.02-.03-.01-.02-.03-.04-.05-.06-.02-.02-.04-.04-.06-.04.04,0,.08-.02.11-.04.03-.02.05-.05.07-.08.02-.03.02-.06.02-.1,0-.04,0-.07-.02-.1-.01-.03-.03-.05-.06-.07-.02-.02-.05-.03-.09-.04-.03,0-.07-.01-.11-.01h-.36s0,.01,0,.01h0s.04,0,.05.02c.01.01.02.02.02.04v.65s0,.03-.02.04c-.01.01-.03.02-.05.02h-.02s.09.01.09.01h.21,0s0-.01-.02-.01c-.02,0-.04,0-.05-.02-.01-.01-.02-.03-.02-.05v-.67s.02,0,.04,0c.03,0,.05,0,.09,0,.02,0,.04,0,.06.01.02,0,.04.02.05.03.02.01.03.03.04.05,0,.02.01.04.02.07,0,.01,0,.03,0,.04,0,.01,0,.02,0,.03-.01.04-.03.06-.05.08-.02.02-.04.03-.06.03-.02,0-.05,0-.07,0-.02,0-.04,0-.06,0h0s.04.02.06.04c.02.02.04.04.05.06,0,0,0,.02.02.03.01.02.02.04.04.06.01.02.03.04.04.06.01.02.02.03.03.04.02.02.03.04.06.06.02.02.05.03.08.04.03.01.07.02.12.02h.06s-.04-.02-.06-.02Z"/>
            <path class="cls-35" d="M26.65,31.66s-.04,0-.06-.02c-.02-.01-.03-.03-.03-.05v-.63s0-.04.03-.05c.02-.01.04-.02.06-.02h.02s-.1-.01-.1-.01h-.22s.02.01.02.01c.02,0,.04,0,.06.02.02.01.03.03.03.05v.63s0,.04-.03.05c-.02.01-.04.02-.06.02h-.02s.1.01.1.01h.22,0s-.02-.01-.02-.01Z"/>
            <path class="cls-35" d="M27.68,31.13s-.03-.08-.06-.11c-.03-.03-.06-.06-.09-.09-.04-.02-.07-.04-.11-.05-.04-.01-.08-.02-.13-.02-.06,0-.1.01-.14.03-.04.02-.06.04-.08.08-.02.03-.03.06-.04.09,0,.03,0,.06,0,.09h.01s0-.06,0-.09c0-.03.02-.06.04-.08.02-.02.05-.05.08-.06.03-.02.07-.02.11-.02.05,0,.09,0,.13.03.04.02.07.05.09.08.03.03.04.07.06.12.01.04.02.09.02.14,0,.08-.02.15-.05.21-.03.06-.07.1-.12.14-.05.03-.11.05-.18.05s-.13-.02-.18-.05c-.05-.03-.1-.08-.13-.14-.03-.06-.05-.13-.05-.22,0-.04,0-.08.01-.13,0-.04.02-.08.04-.12s.05-.07.08-.09h0c-.05.01-.1.04-.13.08-.04.04-.06.08-.08.13-.02.05-.03.1-.03.16,0,.06.01.12.04.17.02.05.06.1.1.14.04.04.09.07.15.09.06.02.12.03.19.03s.13-.01.19-.03c.06-.02.11-.05.15-.09.04-.04.08-.08.1-.14.02-.05.03-.11.03-.17,0-.05,0-.09-.02-.14Z"/>
            <path class="cls-35" d="M28.56,31.65s-.03-.02-.05-.03c-.01-.01-.03-.03-.05-.05-.02-.02-.03-.04-.05-.06-.02-.02-.03-.04-.04-.06-.01-.02-.02-.02-.02-.03-.01-.02-.03-.04-.05-.06-.02-.02-.04-.04-.06-.04.04,0,.08-.02.11-.04.03-.02.05-.05.07-.08.02-.03.02-.06.02-.1,0-.04,0-.07-.02-.1-.01-.03-.03-.05-.06-.07-.02-.02-.05-.03-.09-.04-.03,0-.07-.01-.11-.01h-.36s0,.01,0,.01h0s.04,0,.05.02c.01.01.02.02.02.04v.65s0,.03-.02.04c-.01.01-.03.02-.05.02h-.02s.09.01.09.01h.21,0s0-.01-.02-.01c-.02,0-.04,0-.05-.02-.01-.01-.02-.03-.02-.05v-.67s.02,0,.04,0c.03,0,.05,0,.09,0,.02,0,.04,0,.06.01.02,0,.04.02.05.03.02.01.03.03.04.05,0,.02.01.04.02.07,0,.01,0,.03,0,.04,0,.01,0,.02,0,.03-.01.04-.03.06-.05.08-.02.02-.04.03-.06.03-.02,0-.05,0-.07,0-.02,0-.04,0-.06,0h0s.04.02.06.04c.02.02.04.04.05.06,0,0,0,.02.02.03.01.02.02.04.04.06.01.02.03.04.04.06.01.02.02.03.03.04.02.02.03.04.06.06.02.02.05.03.08.04.03.01.07.02.12.02h.06s-.04-.02-.06-.02Z"/>
            <path class="cls-35" d="M29.14,31.38s-.03-.05-.06-.07l-.25-.18s-.03-.02-.04-.03c0-.01-.02-.02-.02-.03,0-.01,0-.02,0-.04,0-.03.01-.06.04-.08.03-.02.07-.03.11-.03.05,0,.09.01.12.03.03.02.04.05.04.09h.01v-.13h0v-.02h-.05s-.01,0-.02,0c-.02,0-.04,0-.06,0-.02,0-.04,0-.07,0-.04,0-.08,0-.11.03-.03.02-.06.04-.08.07-.02.03-.03.06-.03.1,0,.03,0,.06.02.09.01.03.03.06.07.08l.24.18s.04.03.05.05c.01.02.02.04.02.06,0,.04-.01.07-.04.1-.03.03-.07.04-.13.04-.04,0-.08,0-.11-.02-.03-.02-.05-.04-.07-.07-.02-.03-.02-.07-.02-.11h-.01s-.01.04-.02.06c0,.02,0,.04,0,.07s0,.04,0,.05c.02.01.04.02.06.03.02,0,.05.02.08.02.03,0,.06,0,.09,0,.05,0,.09,0,.13-.03.04-.02.07-.05.09-.08.02-.03.03-.07.03-.12,0-.03,0-.06-.02-.09Z"/>
            <path class="cls-35" d="M30.47,31.44s-.03.07-.05.1c-.02.03-.05.05-.08.07-.03.02-.07.02-.12.02h-.18v-.79s0-.04.03-.06c.02-.02.04-.02.06-.02h.02s-.1-.01-.1-.01h-.23s.02.01.02.01c.02,0,.04,0,.06.02.02.02.03.04.03.06v.74s0,.04-.03.06c-.02.02-.04.02-.06.02h-.02s.1.01.1.01h.5l.07-.23h-.01Z"/>
            <path class="cls-35" d="M31.3,30.88h-.15s.02.01.02.01c.02,0,.03,0,.04.02.01.01.02.02.02.04v.45c0,.08-.02.14-.07.19-.05.05-.11.07-.19.07-.07,0-.13-.02-.17-.07-.04-.05-.06-.11-.06-.2v-.43s0-.03.02-.04c.01-.01.03-.02.04-.02h.02s-.08-.01-.08-.01h-.2s.02.01.02.01c.02,0,.03,0,.04.02.01.01.02.02.02.04v.45c0,.09.03.17.09.22.06.05.15.08.26.08.1,0,.19-.03.24-.08.06-.05.09-.13.09-.22v-.44s0-.03.02-.04c.01-.01.03-.02.04-.02h.02s-.08-.01-.08-.01Z"/>
            <path class="cls-35" d="M32.26,31.66s-.04,0-.06-.02c-.02-.01-.04-.03-.05-.06h0l-.34-.73h-.01s0,.02,0,.04c0,.02-.01.03-.02.05,0,.02-.01.03-.02.04,0,.01,0,.02,0,.02l-.28.59s-.03.04-.05.05c-.02.01-.04.02-.06.02h-.01s.26.01.26.01h0s-.01-.01-.01-.01c-.02,0-.03,0-.04-.02-.01-.01-.01-.03,0-.05l.07-.17h.32l.07.17s0,.04,0,.05c-.01.01-.03.02-.04.02h-.01s.31.01.31.01h0s-.01-.01-.01-.01ZM31.65,31.38l.14-.33.14.33h-.28Z"/>
            <path class="cls-35" d="M33.01,30.88h-.15s.02.01.02.01c.02,0,.03,0,.04.02.01.01.02.02.02.04v.45c0,.08-.02.14-.07.19-.05.05-.11.07-.19.07-.07,0-.13-.02-.17-.07-.04-.05-.06-.11-.06-.2v-.43s0-.03.02-.04c.01-.01.03-.02.04-.02h.02s-.08-.01-.08-.01h-.2s.02.01.02.01c.02,0,.03,0,.04.02.01.01.02.02.02.04v.45c0,.09.03.17.09.22.06.05.15.08.26.08.1,0,.19-.03.24-.08.06-.05.09-.13.09-.22v-.44s0-.03.02-.04c.01-.01.03-.02.04-.02h.02s-.08-.01-.08-.01Z"/>
          </g>
          <g>
            <path class="cls-5" d="M23.55,30.74h0s.01.01.01.01c.02,0,.03,0,.04.02.01.01.01.03,0,.06h0l-.16.57-.26-.69h0s-.01,0-.01,0l-.25.7-.19-.58h0s0-.05,0-.06c.01-.01.03-.02.04-.02h.01s-.33-.01-.33-.01h0s.01.01.01.01c.02,0,.04,0,.07.02.02.01.04.03.05.06l.31.86h.01s0-.05,0-.07c0-.02.01-.05.02-.08l.2-.57.28.72h.01s0-.04,0-.07c0-.02.01-.05.02-.08l.22-.71s.03-.04.05-.06c.02-.01.05-.02.07-.02h.01s-.27-.01-.27-.01Z"/>
            <path class="cls-5" d="M24.51,31.66s-.04,0-.06-.02c-.02-.01-.04-.03-.05-.06h0l-.34-.73h-.01s0,.02,0,.04c0,.02-.01.03-.02.05,0,.02-.01.03-.02.04,0,.01,0,.02,0,.02l-.28.59s-.03.04-.05.05c-.02.01-.04.02-.06.02h-.01s.26.01.26.01h0s-.01-.01-.01-.01c-.02,0-.03,0-.04-.02-.01-.01-.01-.03,0-.05l.07-.17h.32l.07.17s0,.04,0,.05c-.01.01-.03.02-.04.02h-.01s.31.01.31.01h0s-.01-.01-.01-.01ZM23.9,31.38l.14-.33.14.33h-.28Z"/>
            <path class="cls-5" d="M25.35,31.65s-.03-.02-.05-.03c-.01-.01-.03-.03-.05-.05-.02-.02-.03-.04-.05-.06-.02-.02-.03-.04-.04-.06-.01-.02-.02-.02-.02-.03-.01-.02-.03-.04-.05-.06-.02-.02-.04-.04-.06-.04.04,0,.08-.02.11-.04.03-.02.05-.05.07-.08.02-.03.02-.06.02-.1,0-.04,0-.07-.02-.1-.01-.03-.03-.05-.06-.07-.02-.02-.05-.03-.09-.04-.03,0-.07-.01-.11-.01h-.36s0,.01,0,.01h0s.04,0,.05.02c.01.01.02.02.02.04v.65s0,.03-.02.04c-.01.01-.03.02-.05.02h-.02s.09.01.09.01h.21,0s0-.01-.02-.01c-.02,0-.04,0-.05-.02-.01-.01-.02-.03-.02-.05v-.67s.02,0,.04,0c.03,0,.05,0,.09,0,.02,0,.04,0,.06.01.02,0,.04.02.05.03.02.01.03.03.04.05,0,.02.01.04.02.07,0,.01,0,.03,0,.04,0,.01,0,.02,0,.03-.01.04-.03.06-.05.08-.02.02-.04.03-.06.03-.02,0-.05,0-.07,0-.02,0-.04,0-.06,0h0s.04.02.06.04c.02.02.04.04.05.06,0,0,0,.02.02.03.01.02.02.04.04.06.01.02.03.04.04.06.01.02.02.03.03.04.02.02.03.04.06.06.02.02.05.03.08.04.03.01.07.02.12.02h.06s-.04-.02-.06-.02Z"/>
            <path class="cls-5" d="M26.2,31.65s-.03-.02-.05-.03c-.01-.01-.03-.03-.05-.05-.02-.02-.03-.04-.05-.06-.02-.02-.03-.04-.04-.06-.01-.02-.02-.02-.02-.03-.01-.02-.03-.04-.05-.06-.02-.02-.04-.04-.06-.04.04,0,.08-.02.11-.04.03-.02.05-.05.07-.08.02-.03.02-.06.02-.1,0-.04,0-.07-.02-.1-.01-.03-.03-.05-.06-.07-.02-.02-.05-.03-.09-.04-.03,0-.07-.01-.11-.01h-.36s0,.01,0,.01h0s.04,0,.05.02c.01.01.02.02.02.04v.65s0,.03-.02.04c-.01.01-.03.02-.05.02h-.02s.09.01.09.01h.21,0s0-.01-.02-.01c-.02,0-.04,0-.05-.02-.01-.01-.02-.03-.02-.05v-.67s.02,0,.04,0c.03,0,.05,0,.09,0,.02,0,.04,0,.06.01.02,0,.04.02.05.03.02.01.03.03.04.05,0,.02.01.04.02.07,0,.01,0,.03,0,.04,0,.01,0,.02,0,.03-.01.04-.03.06-.05.08-.02.02-.04.03-.06.03-.02,0-.05,0-.07,0-.02,0-.04,0-.06,0h0s.04.02.06.04c.02.02.04.04.05.06,0,0,0,.02.02.03.01.02.02.04.04.06.01.02.03.04.04.06.01.02.02.03.03.04.02.02.03.04.06.06.02.02.05.03.08.04.03.01.07.02.12.02h.06s-.04-.02-.06-.02Z"/>
            <path class="cls-5" d="M26.65,31.66s-.04,0-.06-.02c-.02-.01-.03-.03-.03-.05v-.63s0-.04.03-.05c.02-.01.04-.02.06-.02h.02s-.1-.01-.1-.01h-.22s.02.01.02.01c.02,0,.04,0,.06.02.02.01.03.03.03.05v.63s0,.04-.03.05c-.02.01-.04.02-.06.02h-.02s.1.01.1.01h.22,0s-.02-.01-.02-.01Z"/>
            <path class="cls-5" d="M27.68,31.13s-.03-.08-.06-.11c-.03-.03-.06-.06-.09-.09-.04-.02-.07-.04-.11-.05-.04-.01-.08-.02-.13-.02-.06,0-.1.01-.14.03-.04.02-.06.04-.08.08-.02.03-.03.06-.04.09,0,.03,0,.06,0,.09h.01s0-.06,0-.09c0-.03.02-.06.04-.08.02-.02.05-.05.08-.06.03-.02.07-.02.11-.02.05,0,.09,0,.13.03.04.02.07.05.09.08.03.03.04.07.06.12.01.04.02.09.02.14,0,.08-.02.15-.05.21-.03.06-.07.1-.12.14-.05.03-.11.05-.18.05s-.13-.02-.18-.05c-.05-.03-.1-.08-.13-.14-.03-.06-.05-.13-.05-.22,0-.04,0-.08.01-.13,0-.04.02-.08.04-.12s.05-.07.08-.09h0c-.05.01-.1.04-.13.08-.04.04-.06.08-.08.13-.02.05-.03.1-.03.16,0,.06.01.12.04.17.02.05.06.1.1.14.04.04.09.07.15.09.06.02.12.03.19.03s.13-.01.19-.03c.06-.02.11-.05.15-.09.04-.04.08-.08.1-.14.02-.05.03-.11.03-.17,0-.05,0-.09-.02-.14Z"/>
            <path class="cls-5" d="M28.56,31.65s-.03-.02-.05-.03c-.01-.01-.03-.03-.05-.05-.02-.02-.03-.04-.05-.06-.02-.02-.03-.04-.04-.06-.01-.02-.02-.02-.02-.03-.01-.02-.03-.04-.05-.06-.02-.02-.04-.04-.06-.04.04,0,.08-.02.11-.04.03-.02.05-.05.07-.08.02-.03.02-.06.02-.1,0-.04,0-.07-.02-.1-.01-.03-.03-.05-.06-.07-.02-.02-.05-.03-.09-.04-.03,0-.07-.01-.11-.01h-.36s0,.01,0,.01h0s.04,0,.05.02c.01.01.02.02.02.04v.65s0,.03-.02.04c-.01.01-.03.02-.05.02h-.02s.09.01.09.01h.21,0s0-.01-.02-.01c-.02,0-.04,0-.05-.02-.01-.01-.02-.03-.02-.05v-.67s.02,0,.04,0c.03,0,.05,0,.09,0,.02,0,.04,0,.06.01.02,0,.04.02.05.03.02.01.03.03.04.05,0,.02.01.04.02.07,0,.01,0,.03,0,.04,0,.01,0,.02,0,.03-.01.04-.03.06-.05.08-.02.02-.04.03-.06.03-.02,0-.05,0-.07,0-.02,0-.04,0-.06,0h0s.04.02.06.04c.02.02.04.04.05.06,0,0,0,.02.02.03.01.02.02.04.04.06.01.02.03.04.04.06.01.02.02.03.03.04.02.02.03.04.06.06.02.02.05.03.08.04.03.01.07.02.12.02h.06s-.04-.02-.06-.02Z"/>
            <path class="cls-5" d="M29.14,31.38s-.03-.05-.06-.07l-.25-.18s-.03-.02-.04-.03c0-.01-.02-.02-.02-.03,0-.01,0-.02,0-.04,0-.03.01-.06.04-.08.03-.02.07-.03.11-.03.05,0,.09.01.12.03.03.02.04.05.04.09h.01v-.13h0v-.02h-.05s-.01,0-.02,0c-.02,0-.04,0-.06,0-.02,0-.04,0-.07,0-.04,0-.08,0-.11.03-.03.02-.06.04-.08.07-.02.03-.03.06-.03.1,0,.03,0,.06.02.09.01.03.03.06.07.08l.24.18s.04.03.05.05c.01.02.02.04.02.06,0,.04-.01.07-.04.1-.03.03-.07.04-.13.04-.04,0-.08,0-.11-.02-.03-.02-.05-.04-.07-.07-.02-.03-.02-.07-.02-.11h-.01s-.01.04-.02.06c0,.02,0,.04,0,.07s0,.04,0,.05c.02.01.04.02.06.03.02,0,.05.02.08.02.03,0,.06,0,.09,0,.05,0,.09,0,.13-.03.04-.02.07-.05.09-.08.02-.03.03-.07.03-.12,0-.03,0-.06-.02-.09Z"/>
            <path class="cls-5" d="M30.47,31.44s-.03.07-.05.1c-.02.03-.05.05-.08.07-.03.02-.07.02-.12.02h-.18v-.79s0-.04.03-.06c.02-.02.04-.02.06-.02h.02s-.1-.01-.1-.01h-.23s.02.01.02.01c.02,0,.04,0,.06.02.02.02.03.04.03.06v.74s0,.04-.03.06c-.02.02-.04.02-.06.02h-.02s.1.01.1.01h.5l.07-.23h-.01Z"/>
            <path class="cls-5" d="M31.3,30.88h-.15s.02.01.02.01c.02,0,.03,0,.04.02.01.01.02.02.02.04v.45c0,.08-.02.14-.07.19-.05.05-.11.07-.19.07-.07,0-.13-.02-.17-.07-.04-.05-.06-.11-.06-.2v-.43s0-.03.02-.04c.01-.01.03-.02.04-.02h.02s-.08-.01-.08-.01h-.2s.02.01.02.01c.02,0,.03,0,.04.02.01.01.02.02.02.04v.45c0,.09.03.17.09.22.06.05.15.08.26.08.1,0,.19-.03.24-.08.06-.05.09-.13.09-.22v-.44s0-.03.02-.04c.01-.01.03-.02.04-.02h.02s-.08-.01-.08-.01Z"/>
            <path class="cls-5" d="M32.26,31.66s-.04,0-.06-.02c-.02-.01-.04-.03-.05-.06h0l-.34-.73h-.01s0,.02,0,.04c0,.02-.01.03-.02.05,0,.02-.01.03-.02.04,0,.01,0,.02,0,.02l-.28.59s-.03.04-.05.05c-.02.01-.04.02-.06.02h-.01s.26.01.26.01h0s-.01-.01-.01-.01c-.02,0-.03,0-.04-.02-.01-.01-.01-.03,0-.05l.07-.17h.32l.07.17s0,.04,0,.05c-.01.01-.03.02-.04.02h-.01s.31.01.31.01h0s-.01-.01-.01-.01ZM31.65,31.38l.14-.33.14.33h-.28Z"/>
            <path class="cls-5" d="M33.01,30.88h-.15s.02.01.02.01c.02,0,.03,0,.04.02.01.01.02.02.02.04v.45c0,.08-.02.14-.07.19-.05.05-.11.07-.19.07-.07,0-.13-.02-.17-.07-.04-.05-.06-.11-.06-.2v-.43s0-.03.02-.04c.01-.01.03-.02.04-.02h.02s-.08-.01-.08-.01h-.2s.02.01.02.01c.02,0,.03,0,.04.02.01.01.02.02.02.04v.45c0,.09.03.17.09.22.06.05.15.08.26.08.1,0,.19-.03.24-.08.06-.05.09-.13.09-.22v-.44s0-.03.02-.04c.01-.01.03-.02.04-.02h.02s-.08-.01-.08-.01Z"/>
          </g>
        </g>
      </g>
    </g>
  </g>
</svg>